<?xml version="1.0" encoding="UTF-8"?>
<svg xmlns="http://www.w3.org/2000/svg" viewBox="0 0 578.2 676.77">
  <defs>
    <style>
      .cls-1 {
        fill: none;
        stroke: #000;
      }

      .cls-1, .cls-2 {
        stroke-miterlimit: 10;
      }

      .cls-3, .cls-2 {
        fill: #e1252e;
      }

      .cls-4 {
        opacity: .11;
      }

      .cls-5 {
        fill: #234790;
      }

      .cls-2 {
        stroke: #e1252e;
      }
    </style>
  </defs>
  <g id="Livello_4" data-name="Livello 4">
    <g>
      <path class="cls-5" d="M267.82,671.77c-70.29,0-136.35-24.84-186.01-69.93C32.28,556.86,5,497.1,5,433.56s27.28-123.29,76.8-168.27c49.66-45.1,115.72-69.93,186.01-69.93s136.35,24.84,186.01,69.93c49.53,44.98,76.8,104.74,76.8,168.27s-27.28,123.29-76.8,168.27c-49.66,45.1-115.72,69.93-186.01,69.93Z"/>
      <path class="cls-5" d="M267.82,200.36c34.92,0,68.79,6.21,100.66,18.45,30.73,11.8,58.32,28.69,81.99,50.19,23.61,21.44,42.13,46.38,55.05,74.12,13.34,28.65,20.11,59.08,20.11,90.44s-6.77,61.79-20.11,90.44c-12.92,27.75-31.45,52.69-55.05,74.12-23.68,21.5-51.26,38.39-81.99,50.19-31.87,12.24-65.74,18.45-100.66,18.45s-68.79-6.21-100.66-18.45c-30.73-11.8-58.32-28.69-81.99-50.19-23.61-21.44-42.13-46.38-55.05-74.12-13.34-28.65-20.11-59.08-20.11-90.44s6.77-61.79,20.11-90.44c12.92-27.75,31.45-52.69,55.05-74.12,23.68-21.5,51.26-38.39,81.99-50.19,31.87-12.24,65.74-18.45,100.66-18.45M267.82,190.36C119.91,190.36,0,299.24,0,433.56s119.91,243.21,267.82,243.21,267.82-108.89,267.82-243.21-119.91-243.21-267.82-243.21h0Z"/>
    </g>
    <path class="cls-5" d="M240.68,370.44c-37.2-8.37-79.02,6.33-94.43,43.21-7.13,17.06-8.84,38.55,2.19,54.32,5.17,7.39,11.78,14.86,18.98,20.31,7.89,5.98,16.89,6.01,26.31,7.02,5.64.6,10.38,2.98,15.64,4.86s10.86,2.69,16.41,3.05c12.13.8,24.49-.29,36.61-.82,7.69-.34,7.73-12.34,0-12-17.46.77-36.53,3.62-53.12-3.1-7.97-3.23-15.42-3.68-23.85-4.67s-13.63-6.08-19.36-12.17c-5.21-5.54-10.47-11.54-12.42-19.07s-1.15-16.86.83-24.67c3.94-15.52,14-28.55,27.64-36.83,16.6-10.07,36.65-12.07,55.39-7.86,7.52,1.69,10.73-9.87,3.19-11.57h0Z"/>
    <path class="cls-3" d="M73.75,568.27c4.06-.34,8.04,1.46,12.07,1.94s8.46.55,12.69.73c7.72.34,7.7-11.66,0-12-4.19-.19-8.55-.06-12.69-.78s-7.82-2.25-12.07-1.89c-7.64.63-7.71,12.64,0,12h0Z"/>
    <path class="cls-5" d="M66.97,566.68c11.09,3.04,22.48,4.69,33.98,4.99,7.72.2,7.72-11.8,0-12-10.47-.27-20.69-1.79-30.79-4.56-7.46-2.04-10.64,9.53-3.19,11.57h0Z"/>
    <path class="cls-5" d="M70.4,575.66c2.98-.45,6.14-.31,9.09.28,3.18.63,6.48-.91,7.38-4.19.81-2.95-1-6.75-4.19-7.38-5.23-1.04-10.21-1.08-15.47-.28-3.21.49-4.98,4.52-4.19,7.38.94,3.43,4.16,4.68,7.38,4.19h0Z"/>
    <path class="cls-5" d="M77.78,569.17c5.37-1.07,11.2,2,16.43,2.95,7.55,1.37,10.79-10.2,3.19-11.57s-14.76-4.55-22.81-2.95c-7.57,1.5-4.36,13.07,3.19,11.57h0Z"/>
    <path class="cls-5" d="M78.95,568.85c4.9.6,9.89.98,14.75,1.82,4.08.7,7.66,2.51,11.85,2.77,7.71.49,7.68-11.52,0-12-3.94-.25-7.89-2.29-11.9-2.81-4.9-.63-9.8-1.2-14.7-1.79-7.65-.93-7.58,11.08,0,12h0Z"/>
    <path class="cls-5" d="M98.49,557.57c-8.34.76-16.37.12-24.45-2.12-7.45-2.06-10.64,9.51-3.19,11.57,9.04,2.5,18.3,3.4,27.64,2.55,7.63-.7,7.7-12.71,0-12h0Z"/>
    <path class="cls-5" d="M78.03,564.39c9.02.67,17.65,3.15,25.69,7.31,6.85,3.54,12.92-6.81,6.06-10.36-9.98-5.17-20.54-8.11-31.74-8.94-7.7-.57-7.67,11.43,0,12h0Z"/>
    <path class="cls-5" d="M77.11,560.29c5.06-.39,10.05,1.7,14.82,3.23s9.5,3.22,14.19,5c7.23,2.74,10.36-8.86,3.19-11.57-5.28-2-10.6-3.87-15.98-5.57-5.27-1.66-10.62-3.53-16.21-3.09-7.65.6-7.71,12.6,0,12h0Z"/>
  </g>
  <g id="Livello_1" data-name="Livello 1">
    <g>
      <path class="cls-4" d="M577.28,11.53c.85,0-.69-1.38-.67-1.36-.65-.64-1.32-1.27-2-1.87-.33-.36-.72-.64-1.16-.84-.85,0,.69,1.38.67,1.36.65.64,1.32,1.27,2,1.87.33.36.72.64,1.16.84Z"/>
      <path class="cls-4" d="M577.77,15.56c.72,0-1.13-2.79-1.78-2.79-.72,0,1.13,2.79,1.78,2.79Z"/>
      <path class="cls-4" d="M575.04,8.9c-.13-.47-.41-.85-.82-1.14-1.24-1.2-2.51-2.38-3.8-3.53-1.28-1.17-2.58-2.3-3.91-3.41-.34-.38-.74-.62-1.22-.7.13.47.41.85.82,1.14,1.24,1.2,2.51,2.38,3.8,3.53,1.28,1.17,2.58,2.3,3.91,3.41.34.38.74.62,1.22.7Z"/>
      <path class="cls-4" d="M575.26,10.92c-.03-.4-.2-.75-.53-1.03-.89-1.08-1.81-2.14-2.76-3.18-.93-1.05-1.89-2.07-2.88-3.07-.25-.35-.57-.56-.97-.63.03.4.2.75.53,1.03.89,1.08,1.81,2.14,2.76,3.18.93,1.05,1.89,2.07,2.88,3.07.25.35.57.56.97.63Z"/>
      <path class="cls-4" d="M577.95,11.05c.71,0-.35-.99-.35-.99-.45-.43-1.46-1.57-2.16-1.57s.35.99.35.99c.45.43,1.46,1.57,2.16,1.57Z"/>
      <path class="cls-4" d="M574.9,8.27c-.07-.39-.28-.69-.63-.92-1-.92-2.02-1.81-3.06-2.68-1.03-.88-2.09-1.73-3.17-2.56-.29-.31-.63-.46-1.02-.47.07.39.28.69.63.92,1,.92,2.02,1.81,3.06,2.68,1.03.88,2.09,1.73,3.17,2.56.29.31.63.46,1.02.47Z"/>
      <path class="cls-4" d="M575.88,12.51c-.04-.45-.24-.84-.58-1.17-.97-1.27-1.98-2.52-3.01-3.75-1.02-1.24-2.06-2.46-3.13-3.65-.26-.4-.61-.67-1.04-.79.04.45.24.84.58,1.17.97,1.27,1.98,2.52,3.01,3.75,1.02,1.24,2.06,2.46,3.13,3.65.26.4.61.67,1.04.79Z"/>
      <path class="cls-4" d="M576.86,9.66c.6,0-.16-.8-.2-.83-.35-.37-1.09-1.08-1.65-1.08-.6,0,.16.8.2.83.35.37,1.09,1.08,1.65,1.08Z"/>
      <path class="cls-4" d="M575.54,10.47c-.14-.52-.42-.95-.86-1.31-1.3-1.42-2.63-2.82-3.98-4.19-1.34-1.39-2.7-2.75-4.1-4.08-.34-.44-.77-.74-1.28-.89.14.52.42.95.86,1.31,1.3,1.42,2.63,2.82,3.98,4.19,1.34,1.39,2.7,2.75,4.1,4.08.34.44.77.74,1.28.89Z"/>
      <path class="cls-4" d="M575.33,9.69c.9,0-.83-1.5-.8-1.48-.73-.72-1.48-1.42-2.25-2.1-.38-.4-.81-.71-1.29-.96-.9,0,.83,1.5.8,1.48.73.72,1.48,1.42,2.25,2.1.38.4.81.71,1.29.96Z"/>
      <path class="cls-4" d="M577.75,9.55c.56,0-.13-.74-.16-.77-.33-.35-.98-.84-1.48-.84-.56,0,.13.74.16.77.33.35.98.84,1.48.84Z"/>
      <path class="cls-4" d="M575.13,11.32c-.07-.48-.29-.89-.66-1.23-1.07-1.35-2.16-2.67-3.29-3.97-1.11-1.31-2.25-2.6-3.41-3.87-.28-.42-.65-.7-1.12-.85.07.48.29.89.66,1.23,1.07,1.35,2.16,2.67,3.29,3.97,1.11,1.31,2.25,2.6,3.41,3.87.28.42.65.7,1.12.85Z"/>
    </g>
    <path class="cls-3" d="M79.51,358.53c-7.27,64.18-9.3,128.87-6.08,193.38.38,7.69,12.39,7.73,12,0-3.23-64.51-1.19-129.2,6.08-193.38.87-7.66-11.14-7.6-12,0h0Z"/>
    <path class="cls-3" d="M109.7,351.73c-7.82,0-15.64,0-23.46,0-6.43,0-6.45,10,0,10,7.82,0,15.64,0,23.46,0,6.43,0,6.45-10,0-10h0Z"/>
    <path class="cls-3" d="M269.26,559.89c62.1-.46,124.19.97,186.29.92,7.72,0,7.73-12.01,0-12-62.1.05-124.19-1.38-186.29-.92-7.72.06-7.74,12.06,0,12h0Z"/>
    <path class="cls-3" d="M83.51,558.97c61.91,1.04,123.83-.55,185.74.48,7.72.13,7.73-11.87,0-12-61.91-1.03-123.83.56-185.74-.48-7.72-.13-7.73,11.87,0,12h0Z"/>
    <path class="cls-3" d="M426.61,359.35c9.93,1.27,19.85,2.54,29.78,3.81,7.64.98,7.57-11.03,0-12-9.93-1.27-19.85-2.54-29.78-3.81-7.64-.98-7.57,11.03,0,12h0Z"/>
    <path class="cls-3" d="M450.68,359.27c.92,65.17,1.23,130.35.92,195.53-.04,7.72,11.96,7.73,12,0,.31-65.18,0-130.36-.92-195.53-.11-7.72-12.11-7.74-12,0h0Z"/>
    <path class="cls-3" d="M108.63,317.01c1.09,65.33,2.17,130.65,3.26,195.98.13,7.71,12.13,7.74,12,0-1.09-65.33-2.17-130.65-3.26-195.98-.13-7.71-12.13-7.74-12,0h0Z"/>
    <path class="cls-3" d="M419.81,319.3c1.74,64,4.83,127.96,6.46,191.97.2,7.71,12.2,7.74,12,0-1.63-64.01-4.72-127.97-6.46-191.97-.21-7.71-12.21-7.74-12,0h0Z"/>
    <path class="cls-3" d="M271.51,545.3c-8.71-9.05-16.82-18.71-27.2-25.95-11.08-7.74-24.45-10.93-37.62-12.96-30.06-4.63-60.54-1.85-90.41,2.88-7.61,1.2-4.38,12.77,3.19,11.57,27.55-4.36,56.27-7.14,84.03-2.88,12.2,1.87,24.5,4.59,34.75,11.75,9.45,6.6,16.83,15.83,24.77,24.07,5.37,5.57,13.85-2.92,8.49-8.49h0Z"/>
    <path class="cls-3" d="M116.1,319.44c52.01-2.49,109.48-3.59,147.68,37.87,5.24,5.69,13.71-2.81,8.49-8.49-18.85-20.47-44.05-33.12-71.2-38.42s-56.65-4.33-84.96-2.97c-7.69.37-7.73,12.37,0,12h0Z"/>
    <path class="cls-3" d="M425.78,311.77c-29.05-2.24-58.61-4.22-87.38,1.67-27.93,5.72-53.12,19.94-71.77,41.59-5.02,5.82,3.43,14.35,8.49,8.49,17.85-20.72,41.4-33.67,68.18-38.84,27.11-5.23,55.17-3.01,82.49-.91,7.7.59,7.66-11.41,0-12h0Z"/>
    <path class="cls-3" d="M434.94,509.15c-13.05-6.13-25.88-13.7-40.2-16.46-14.75-2.84-29.76.4-43.89,4.78-31.53,9.77-60.04,27.68-86.61,46.88-6.2,4.48-.22,14.9,6.06,10.36,24.8-17.92,51.28-34.96,80.51-44.64,12.81-4.24,27.2-8.35,40.74-5.82,13.34,2.5,25.19,9.54,37.33,15.25,6.95,3.27,13.05-7.08,6.06-10.36h0Z"/>
    <rect class="cls-2" x="265.02" y="358.53" width="11.42" height="188.08"/>
    <path class="cls-3" d="M87.96,360.41c-6.17,40.65.11,81.29,1.51,122.03.26,7.7,12.26,7.74,12,0-1.35-39.51-7.92-79.42-1.94-118.84,1.15-7.55-10.42-10.81-11.57-3.19h0Z"/>
    <path class="cls-3" d="M103.48,370.86c7.64-2.04,15.38-3.6,23.24-4.51l-4.24-10.24c-7.66,9.03-15.32,18.06-22.99,27.09-5.02,5.92-17.1,15.58-9.59,23.76,1.81,1.97,5.02,2.2,7.27.94,13.43-7.55,26.86-15.09,40.28-22.64l-8.81-6.78c-.88,4.19-2.11,8.14-3.98,12-2.6,5.37,2.7,11.11,8.21,8.21,12.93-6.8,25.86-13.6,38.78-20.4l-8.81-6.78c-1.29,4.92-4.85,9.11-7.66,13.27s-5.87,8.69-8.81,13.03c-3.5,5.18,3.24,10.98,8.21,8.21,5.72-3.19,11.45-6.38,17.17-9.57,5.4-3.01,10.76-6.69,16.83-8.16l-6.78-8.81c-9.56,18.84-23.86,34.8-32.96,53.91-1.98,4.16.4,8.8,5.18,9.03,5.14.24,9.02-2.62,13.11-5.35,4.95-3.31,9.9-6.62,14.85-9.94l-9.03-5.18c.3,2.56-3.76,6.8-5.08,8.82-1.91,2.93-3.82,5.85-5.73,8.78-3.82,5.85-7.64,11.7-11.47,17.55-2.84,4.35,1.88,10.36,6.78,8.81,23.66-7.46,39.71-26.84,60.11-39.8l-8.21-8.21c-12.45,18.68-24.9,37.35-37.35,56.03-4.1,6.15,4.49,11.14,9.42,7.27,20.06-15.75,38.41-33.45,56.2-51.68,5.47-5.6-2.67-13.44-8.49-8.49-17.5,14.93-34.26,30.68-50.24,47.22-5.37,5.56,2.94,13.88,8.49,8.49,19.26-18.74,38.86-37.12,58.78-55.14,5.74-5.19-2.77-13.66-8.49-8.49-19.93,18.02-39.52,36.41-58.78,55.14l8.49,8.49c15.99-16.54,32.75-32.29,50.24-47.22l-8.49-8.49c-17.79,18.23-36.15,35.93-56.2,51.68l9.42,7.27c12.45-18.68,24.9-37.35,37.35-56.03,3.33-5-3.24-11.36-8.21-8.21-19.3,12.26-34.93,31.56-57.24,38.59l6.78,8.81c4.52-6.92,9.03-13.83,13.55-20.75,3.66-5.6,11.2-13.37,10.37-20.47-.48-4.13-4.85-7.98-9.03-5.18-3.85,2.58-7.7,5.15-11.55,7.73-2.8,1.87-6.95,6.08-10.35,5.92l5.18,9.03c9.1-19.1,23.4-35.06,32.96-53.91,2.37-4.67-1.53-10.09-6.78-8.81-6.52,1.58-12.26,5.23-18.06,8.46-6.27,3.5-12.54,6.99-18.8,10.49l8.21,8.21c3.28-4.85,6.56-9.71,9.85-14.56s6.39-9.1,7.84-14.61c1.36-5.21-4.22-9.19-8.81-6.78-12.93,6.8-25.86,13.6-38.78,20.4l8.21,8.21c2.32-4.78,4.1-9.66,5.19-14.86s-4.07-9.44-8.81-6.78c-13.43,7.55-26.86,15.09-40.28,22.64l7.27.94c-.01,3.75.63,4.5,1.93,2.24l1.92-2.26,3.83-4.51c2.77-3.26,5.53-6.52,8.3-9.78,5.53-6.52,11.07-13.04,16.6-19.56,2.95-3.47,1.42-10.9-4.24-10.24-8.94,1.04-17.73,2.62-26.43,4.94-7.46,1.99-4.29,13.56,3.19,11.57h0Z"/>
    <path class="cls-3" d="M93.03,388.18l-.39,1.19c-2.29,6.89,7.23,9.78,10.97,4.62,2.35-3.24,4.53-6.58,6.56-10.03,1.68-2.85,3.98-5.97,4.55-9.26,1.11-6.4-7.3-11.76-11.81-6.14l10.03,2.65c-.46-1.84-.56-3.3-.49-5.19.21-5.2-6.71-7.91-10.24-4.24-6.4,6.64-10.24,14.88-14.31,23.04l10.97,4.62c1.16-6.73,3.64-12.97,6.28-19.24l-11.79-1.6c.08,1.67.1,3.3.07,4.97-.14,7.72,11.86,7.73,12,0,.03-1.67,0-3.3-.07-4.97-.34-7.16-9.24-7.64-11.79-1.6s-5.12,12.51-6.28,19.24c-1.07,6.19,7.7,11.18,10.97,4.62,3.57-7.17,6.81-14.78,12.43-20.61l-10.24-4.24c-.12,2.87.22,5.6.91,8.38,1.02,4.06,7.15,6.22,10.03,2.65l.39-.48-4.24,1.76.72.02-4.24-1.76.54.48-1.76-4.24c.52-1.13.51-1.18-.03-.13-.41.75-.83,1.5-1.25,2.25-.84,1.49-1.7,2.98-2.59,4.44-1.77,2.94-3.67,5.78-5.68,8.56l10.97,4.62.39-1.19c2.44-7.35-9.15-10.5-11.57-3.19h0Z"/>
    <path class="cls-3" d="M113.95,394.35c-.26-2.11-.54-3.65-1.7-5.47-2.93-4.62-9.15-3.34-10.97,1.43-6.36,16.67-9.12,34.47-8.2,52.28.35,6.65,9.83,8.27,11.79,1.6,6.26-21.4,12.12-42.92,17.58-64.54l-11.57-3.19c-2.97,18.05-4.77,36.24-5.26,54.53h12l-.15-3.32c-.3-6.54-10.12-8.42-11.79-1.6-3.53,14.42-5.17,29.2-4.81,44.04.19,7.84,11.29,7.58,12,0,1-10.73,1.34-21.47,1.01-32.24-.24-7.88-11.18-7.54-12,0-.73,6.71-1.87,13.33-3.32,19.92,3.66-.48,7.31-.96,10.97-1.43-2.29-5.24-4.59-10.49-6.88-15.73-1.96-4.47-8.1-3.3-10.36,0s-2.18,6.98-2.5,10.72c-.37,4.27-.73,8.54-1.1,12.81h12c-.14-19.33-2.88-38.55-8.16-57.15-2.11-7.42-13.69-4.26-11.57,3.19,5.01,17.63,7.6,35.63,7.73,53.96.06,7.83,11.35,7.59,12,0,.26-3.05.52-6.1.79-9.15.21-2.48-.24-6.25,1.18-8.32h-10.36c2.29,5.24,4.59,10.49,6.88,15.73,2.08,4.75,9.92,3.33,10.97-1.43,1.68-7.63,2.9-15.33,3.75-23.11h-12c.33,10.77-.01,21.52-1.01,32.24h12c-.33-13.82,1.1-27.42,4.38-40.85l-11.79-1.6.15,3.32c.35,7.69,11.79,7.75,12,0,.46-17.21,2.04-34.35,4.83-51.34,1.23-7.45-9.64-10.83-11.57-3.19-5.45,21.62-11.31,43.14-17.58,64.54l11.79,1.6c-.88-16.87,1.75-33.31,7.77-49.09-3.66.48-7.31.96-10.97,1.43l.06-.58c.94,7.56,12.96,7.66,12,0h0Z"/>
    <path class="cls-3" d="M79.41,413.32c-.53,21.66.03,43.34,3.9,64.66,1.85,10.18.27,20.82.68,31.1.44,10.76,2.96,21.34,2.37,32.15l11.79-1.6c-3.4-10.17.52-21.14-3.09-31.41-1.25-3.57-5.3-5.71-8.81-3.59-2.3,1.39-3.73,3.21-4.44,5.82-2.02,7.46,9.55,10.65,11.57,3.19l-1.08,1.35c-2.94-1.2-5.88-2.39-8.81-3.59,3.55,10.12-.34,21.12,3.09,31.41,2.16,6.46,11.41,5.25,11.79-1.6.57-10.5-1.82-20.76-2.34-31.21s.77-21.26-.63-31.82c-.63-4.74-1.95-9.34-2.45-14.1-.57-5.48-.86-11.01-1.14-16.51-.57-11.42-.68-22.85-.4-34.27.19-7.72-11.81-7.72-12,0h0Z"/>
    <path class="cls-3" d="M74.79,478.64c6.21,23.01,9.12,46.59,8.72,70.42-.13,7.72,11.87,7.73,12,0,.42-24.84-2.67-49.63-9.14-73.61-2.01-7.45-13.59-4.29-11.57,3.19h0Z"/>
    <path class="cls-3" d="M118.82,478.88c-1.63-6.81-4.76-12.67-9.13-18.11-2.73-3.4-9.27-1.58-10.03,2.65-2.17,12.14-3.17,24.38-2.81,36.71h12l-1.03-16.16c-.41-6.42-10.22-8.55-11.79-1.6l-2.61,11.57c3.66-.48,7.31-.96,10.97-1.43-.68-1.6-1.02-3.31-1.34-5-.92-4.83-8.89-6.09-10.97-1.43-1.53,3.44-3.06,6.88-4.59,10.32-3.12,7.01,5.88,12.48,10.36,6.06,11.5-16.51,25.4-31.13,41.12-43.69h-8.49c1.16,1.4-4.46,8.37-5.33,9.69-2.55,3.89-5.16,7.74-7.8,11.57-5.12,7.4-10.41,14.66-15.85,21.83l10.36,6.06c2.68-3.86,5.36-7.72,8.04-11.58,4.1-5.91-4.56-11.47-9.42-7.27-1.56,1.35-3.12,2.69-4.69,4.04l10.03,5.84c1.86-4.5,3.11-9.05,3.81-13.87s-5.86-11.21-10.03-5.84c-6.91,8.91-11.57,18.91-13.12,30.15-.68,4.91,3.86,9.66,8.81,6.78,4.25-2.47,6.24-6.15,6.58-10.97h-12c-.1,1.83-3.08,4.46-3.74,6.42-.76,2.27-.8,4.56.02,6.82,1.62,4.45,6.43,5.65,10.03,2.65,5.48-4.56,8.64-13.2,4.9-19.82-1.67-2.96-4.53-5.2-8.02-5.38-4.38-.23-5.78,2.72-8.83,4.88-6.26,4.42-.27,14.83,6.06,10.36.93-.65,1.92-1.26,2.67-2.12.3-.31.58-.62.86-.95,1.27-1.2.23-1.5-3.13-.9-.23.21-.26,2.11-.44,2.53-.54,1.25-1.53,2.07-2.55,2.91l10.03,2.65c-.25-.68,2.29-3.35,2.65-4,1.07-1.95,1.38-3.87,1.5-6.05.43-7.74-11.47-7.66-12,0l-.63.61,8.81,6.78c1.24-9.03,4.4-17.6,10.03-24.85l-10.03-5.84c-.7,4.82-1.95,9.37-3.81,13.87-2.51,6.07,6.02,9.29,10.03,5.84,1.56-1.35,3.12-2.69,4.69-4.04-3.14-2.42-6.28-4.85-9.42-7.27-2.68,3.86-5.36,7.72-8.04,11.58-4.48,6.45,5.8,12.06,10.36,6.06,7.32-9.63,14.36-19.46,21.08-29.52,5.65-8.45,14.01-18.46,6.02-28.1-2.23-2.69-6.15-1.86-8.49,0-16.54,13.22-30.89,28.75-42.99,46.12l10.36,6.06c1.53-3.44,3.06-6.88,4.59-10.32-3.66-.48-7.31-.96-10.97-1.43.53,2.79,1.45,5.27,2.55,7.87,2.03,4.81,9.9,3.28,10.97-1.43l2.61-11.57-11.79-1.6,1.03,16.16c.49,7.64,12.23,7.78,12,0-.33-11.25.4-22.44,2.38-33.52l-10.03,2.65c3.04,3.79,4.92,8.12,6.04,12.81,1.8,7.51,13.37,4.33,11.57-3.19h0Z"/>
    <path class="cls-3" d="M90.45,508.8c-3.54,15.66,17.7,11.49,25.54,7.74-2.42-3.14-4.85-6.28-7.27-9.42-3.4,3.07-6.83,7.19-10.73,9.6l4.62-.6c1.68.6-1.24-1.2-1.62-1.4-1.23-.63-2.72-1.03-4.12-1.06-2.63-.07-5.45,1.08-7.2,3.06-3.8,4.32-2.63,11.39,2.36,14.29,5.88,3.42,11.82-1.07,16.8-3.89,6.07-3.44,12.09-6.15,19.2-5.45l-3.03-11.18c-15.41,7.59-31.03,14.73-46.84,21.42-6.52,2.76-1.68,12.35,4.62,10.97,10.14-2.23,20.43-4.34,30.55-.96,7.34,2.45,10.49-9.14,3.19-11.57-12.15-4.05-24.75-1.71-36.93.96l4.62,10.97c15.82-6.69,31.44-13.83,46.84-21.42,5.86-2.89,2.31-10.65-3.03-11.18-10.66-1.05-20.04,4.05-28.94,9.25-2.15,1.26-1.87.87-2.7,3.97s-.95,3.32,1.88,4.39c2.19.83,4.16.75,6.22-.48,4.64-2.75,8.71-7.59,12.7-11.2,5.34-4.83-1.45-12.21-7.27-9.42-1.7.81-3.42,1.44-5.26,1.83l-1.93.34c-2.59-.43-2.83.79-.71,3.65,1.7-7.52-9.86-10.73-11.57-3.19h0Z"/>
    <path class="cls-3" d="M94.21,547.8c55.8,1.16,111.47-5.33,167.28-3.49,7.72.25,7.71-11.75,0-12-55.81-1.83-111.47,4.65-167.28,3.49-7.73-.16-7.72,11.84,0,12h0Z"/>
    <path class="cls-3" d="M107.56,530.82c8.76,2.94,18.53,2.66,27.66,2.85s18.39.13,27.58-.11c19.06-.49,38.08-1.72,57.1-2.95,7.75-.5,7.68-11.37,0-12-38.52-3.16-76.8-8.5-114.72-15.99-7.54-1.49-10.77,10.07-3.19,11.57,38.96,7.69,78.33,13.17,117.91,16.42v-12c-18.36,1.19-36.73,2.37-55.13,2.89-9.19.26-18.39.36-27.58.2-8.7-.15-18.11.34-26.44-2.46-7.34-2.46-10.49,9.12-3.19,11.57h0Z"/>
    <path class="cls-3" d="M143.06,515.9c-6.76-.53-13.82-.53-19.59,3.54-4.66,3.29-8.5,9.64-6.4,15.45,2.44,6.77,11.95,5.33,17.63,5.27,7.86-.09,15.71-.68,23.54-1.42,31.26-2.93,62.48-5.52,93.81-7.56,7.64-.5,7.78-12.28,0-12-8.98.32-16,5.55-24.28,8.28s-16.76,3.61-25.37,3.69-17.38-.68-26.04-1.43c-4.21-.37-8.32-.69-12.42.61s-7.48,4.07-10.79,6.71c-6.04,4.81,2.5,13.25,8.49,8.49,3.7-2.95,6.35-4.31,11.11-4.12,4.09.16,8.19.73,12.27,1.04,7.5.57,15.05.94,22.57.56s14.72-1.35,21.76-3.46c7.46-2.24,14.89-8.08,22.71-8.36v-12c-21.51,1.4-43.02,2.8-64.49,4.7-10.43.93-20.85,2.1-31.28,3.04-5.55.5-11.1.92-16.67,1.11-2.62.09-5.23.14-7.85.13-1.31,0-2.62-.03-3.93-.07-.65-.01-1.31-.04-1.96-.07-1.32-.08-1.31-.05.02.08l2.76,3.59c-.52-2.09,3.76-3.54,5.02-3.82,3.03-.66,6.34-.22,9.39.02,7.7.6,7.66-11.4,0-12h0Z"/>
    <path class="cls-3" d="M149.05,540.46l-.48,2.55c-.74,3.96,1.66,7.37,5.79,7.6,2.24.12,4.48.24,6.72.36v-12c-5.53.22-11.07.45-16.6.67-7.72.31-7.73,11.7,0,12,45.19,1.75,90.41,2.64,135.64,2.68,7.72,0,7.73-11.99,0-12-45.22-.03-90.44-.93-135.64-2.68v12c5.53-.22,11.07-.45,16.6-.67,7.74-.31,7.71-11.58,0-12-2.24-.12-4.48-.24-6.72-.36l5.79,7.6.48-2.55c1.42-7.55-10.15-10.78-11.57-3.19h0Z"/>
    <path class="cls-3" d="M148.47,441.77c.7-2.99,1.01-5.85.75-8.91-.55-6.63-9.66-8.29-11.79-1.6-3.48,10.95-6.11,22.13-7.75,33.5-1.07,7.43-4.9,24.21,5.45,27.02,4.7,1.28,8.25-1.91,11.17-5.14,3.42-3.79,6.62-7.76,9.68-11.84,6.38-8.51,11.78-17.66,16.3-27.28,1.44-3.06.59-8.23-3.59-8.81-8.91-1.25-16.06,7.68-22,13.39-6.81,6.53-13.1,13.57-18.93,20.98l9.42,7.27c12-23.08,24.01-46.15,36.01-69.23l-10.97-4.62c-6.45,22.95-19.23,43.53-22.21,67.48-.78,6.23,8.35,7.7,11.18,3.03,7.12-11.75,14.24-23.5,21.36-35.25l-10.97-4.62c-4.11,14.37-8.22,28.75-12.34,43.12-1.93,6.76,7.28,10.14,10.97,4.62,6.99-10.47,12.65-21.61,17.2-33.34,2.14-5.5-4.62-8.57-8.81-6.78-5.07,2.17-8.67,9.48-11.7,13.87-3.57,5.16-6.95,10.46-10.14,15.86-6.5,11.02-12.08,22.5-17.01,34.29-2.78,6.64,7.36,9.83,10.97,4.62,8.67-12.51,14.44-26.58,20.17-40.6,2.57-6.3-7.84-10.58-10.97-4.62-3.98,7.6-7.65,15.34-11.01,23.24l10.97,4.62c.82-5.47,1.45-10.96,1.81-16.48s-6.63-7.46-10.24-4.24c-3.16,2.82-3.41,6.81-5.96,9.83-1.11,1.31-2.69,2.01-3.71,3.49-1.5,2.2-1.41,4.12-1.04,6.62,1.15,7.61,12.71,4.38,11.57-3.19l-.15-1.03-.6,4.62c1.23-2.03,3.68-3.29,4.92-5.54s1.58-4.64,3.46-6.32l-10.24-4.24c-.29,4.45-.72,8.88-1.38,13.29-.45,2.99.5,5.83,3.47,7.08,2.47,1.04,6.32.3,7.49-2.45,3.36-7.9,7.03-15.64,11.01-23.24l-10.97-4.62c-5.34,13.08-10.88,26.07-18.96,37.73l10.97,4.62c4.3-10.27,9.31-20.25,14.9-29.88,2.7-4.65,5.55-9.22,8.53-13.7,1.49-2.24,3.01-4.46,4.57-6.65,1.38-1.94,3.1-5.67,5.34-6.63l-8.81-6.78c-4.17,10.74-9.6,20.9-16,30.47l10.97,4.62c4.11-14.37,8.22-28.75,12.34-43.12,1.89-6.6-7.46-10.41-10.97-4.62-7.12,11.75-14.24,23.5-21.36,35.25l11.18,3.03c2.82-22.64,15.67-42.57,21.78-64.29,1.81-6.43-7.77-10.76-10.97-4.62-12,23.08-24.01,46.15-36.01,69.23-2.96,5.69,5,12.9,9.42,7.27s9.38-11.36,14.53-16.63c2.47-2.53,5.01-4.99,7.62-7.38,1.3-1.2,2.62-2.37,3.96-3.53.34-.29,4.39-3.57,3.14-3.75l-3.59-8.81c-3.17,6.76-6.76,13.29-10.86,19.54-2.24,3.41-4.6,6.74-7.13,9.94-1.07,1.35-2.17,2.68-3.28,3.99s-3.38,2.99-4,4.51c-1.67,1.45-.42,1.96,3.74,1.54-.17-1.18-.22-2.36-.15-3.55.04-1.79.28-3.59.48-5.37.48-4.22,1.14-8.41,1.92-12.59,1.58-8.47,3.74-16.8,6.35-25.01l-11.79-1.6c.17,2.1.16,3.65-.32,5.72-1.76,7.51,9.81,10.72,11.57,3.19h0Z"/>
    <path class="cls-3" d="M116.13,383.97c1.75,22.87.5,45.38-1.48,68.19-1.94,22.4-1.89,44.33,4.75,66.01,1.37,4.47,8.76,6.43,10.97,1.43,3.19-7.22,3.74-15.09,4.73-22.85s1.93-16.3,2.67-24.47c1.52-16.67,2.4-33.4,2.7-50.13.11-6.09-8.13-7.98-11.18-3.03-10.41,16.91-12.76,36.69-14.8,56.03-.74,7.04,9.75,7.67,11.79,1.6,8.3-24.78,14.85-50.09,19.61-75.78,1.4-7.58-9-10.53-11.57-3.19-4.22,12.06-7.24,24.42-9.05,37.07-1.07,7.48,10.22,10.88,11.57,3.19,2.2-12.51,3.32-25.13,3.18-37.83-.06-5.75-8.33-8.43-11.18-3.03-1.36,2.57-1.98,4.82-2.02,7.72-.08,5.94,8.24,8.18,11.18,3.03,1.19-2.09,2.06-4.23,2.51-6.58,1.49-7.74-8.65-10.23-11.57-3.19-1.02,2.47-1.37,4.94-1.14,7.59.32,3.63,3.61,7.13,7.6,5.79,11.15-3.76,20.19-10.49,27.2-19.91,3.93-5.27-3.41-10.54-8.21-8.21-6.08,2.95-8.74,9.04-10.81,15.11l11.79,1.6c-.17-1.3-.33-2.6-.5-3.9-.69-5.36-5.96-7.65-10.24-4.24-3.12,2.48-5.6,5.47-7.63,8.89l11.18,3.03c-.17,1.59-.69.86.84.36,1.36-.44,2.78-1.13,4.11-1.65,3.05-1.18,6.11-2.36,9.16-3.54l-6.78-8.81c-5.5,11.69-14.3,22.38-21.48,33.1-3.97,5.93,4.54,11.56,9.42,7.27,15.78-13.85,31.57-27.71,47.35-41.56l-8.49-8.49c-8.83,10.08-17.65,20.16-26.48,30.25l8.49,8.49,17.6-20.86c4.95-5.87-3.49-14.39-8.49-8.49-11.77,13.91-23.51,27.91-33.2,43.38-3.73,5.96,4.52,11.73,9.42,7.27l4.5-4.09-8.49-8.49-6.67,8.43,9.42,7.27c4.77-6.18,10.1-11.9,15.76-17.27-3.14-2.42-6.28-4.85-9.42-7.27-3.26,7.34-6.51,14.68-9.77,22.01s7.23,13.11,10.36,6.06,6.51-14.68,9.77-22.01c2.65-5.98-4.17-12.25-9.42-7.27-6.44,6.1-12.22,12.68-17.64,19.7-4.12,5.34,5.2,12.62,9.42,7.27l6.67-8.43c4.7-5.95-2.63-13.8-8.49-8.49l-4.5,4.09c3.14,2.42,6.28,4.85,9.42,7.27,9.16-14.62,20.21-27.81,31.33-40.95l-8.49-8.49c-5.87,6.95-11.73,13.91-17.6,20.86-4.93,5.84,3.36,14.34,8.49,8.49l26.48-30.25c5.1-5.82-2.66-13.6-8.49-8.49-15.78,13.85-31.57,27.71-47.35,41.56l9.42,7.27c7.18-10.72,15.98-21.41,21.48-33.1,1.97-4.18-1.41-10.89-6.78-8.81-8.57,3.31-21.75,5.49-22.93,16.41-.67,6.18,8.35,7.8,11.18,3.03,1.54-2.6,3.38-4.58,5.75-6.46l-10.24-4.24c.17,1.3.33,2.6.5,3.9.84,6.52,9.47,8.38,11.79,1.6,1.08-3.18,2.1-6.38,5.29-7.94l-8.21-8.21c-5.03,6.76-12.07,11.71-20.03,14.39l7.6,5.79c-.16-1.81.01-2.72.71-4.4l-11.57-3.19c-.29,1.49-.55,2.4-1.3,3.72l11.18,3.03.38-1.66-11.18-3.03c.12,11.63-.74,23.19-2.75,34.64l11.57,3.19c1.81-12.65,4.83-25.01,9.05-37.07l-11.57-3.19c-4.76,25.7-11.31,51-19.61,75.78l11.79,1.6c1.81-17.23,3.89-34.93,13.16-49.98l-11.18-3.03c-.28,15.43-1.05,30.84-2.36,46.21-.64,7.52-1.41,15.03-2.3,22.53s-.84,15.94-3.81,22.66c3.66.48,7.31.96,10.97,1.43-6.55-21.37-6.09-42.76-4.15-64.8s3-44.02,1.3-66.21c-.58-7.65-12.59-7.71-12,0h0Z"/>
    <path class="cls-3" d="M140.29,498.69c1.79,4.45,6.39,7.17,10.88,4.09s7.74-10.15,10.78-14.65c7.23-10.72,14.29-21.56,21.18-32.51,13.77-21.9,26.81-44.26,39.15-66.99,3.77-6.95-5.85-12.13-10.36-6.06-21.39,28.8-35.89,61.72-50.15,94.44-3,6.89,6.6,13.02,10.36,6.06,12.43-23.01,24.85-46.03,37.28-69.04,3.7-6.85-6.06-12.43-10.36-6.06-16.83,24.95-32.14,50.87-45.89,77.64l9.42-1.21c-1.91-2.2,3.57-2.74,5.22-3.19,2.72-.75,5.34-1.7,7.88-2.96,5.31-2.65,9.46-6.68,13.04-11.34,2.05-2.67.28-6.61-2.15-8.21-6.36-4.19-13.35-1.03-17.88,4.18-5.53,6.35-10.51,13.27-15.63,19.95-10.87,14.18-21.44,28.59-32.01,43-4.04,5.51,4.84,12.21,9.42,7.27,23.47-25.3,47-50.59,72.2-74.2l-8.49-8.49c-12.67,16.14-25.35,32.27-38.02,48.41l9.42,7.27c10.13-13.63,20.6-27,31.39-40.12,4.86-5.91-2.63-13.7-8.49-8.49-20.54,18.3-38.79,38.92-54.63,61.4l10.36,6.06,1.57-2.32c2.81-4.16-1.91-10.64-6.78-8.81-4.66,1.75-7.12,7.5-3.15,11.48,4.22,4.22,11.56,1.23,16.13-.68,11.65-4.9,22.07-13.38,31.85-21.25,5.43-4.37-1.51-12.67-7.27-9.42-6.38,3.6-11.47,8.61-15.26,14.87-4.01,6.63,6.37,12.66,10.36,6.06,2.75-4.55,6.32-7.95,10.95-10.57-2.42-3.14-4.85-6.28-7.27-9.42-5.34,4.3-10.86,8.36-16.57,12.16-2.69,1.79-5.41,3.55-8.27,5.07-1.63.86-6.82,3.99-8.82,3.16l4.19,4.19-.04,1.95-4.19,4.19.54-.2-6.78-8.81-1.57,2.32c-4.36,6.45,5.96,12.3,10.36,6.06,15.25-21.64,32.99-41.36,52.75-58.98l-8.49-8.49c-11.44,13.91-22.53,28.1-33.27,42.55-4.03,5.42,5.21,12.63,9.42,7.27,12.67-16.14,25.35-32.27,38.02-48.41,4.66-5.93-2.69-13.91-8.49-8.49-25.2,23.61-48.72,48.89-72.2,74.2l9.42,7.27c8.26-11.26,16.53-22.53,24.94-33.69,2.4-3.19,21.71-30.76,24.17-29.13l-2.15-8.21c-2.43,3.16-5.77,5.76-9.41,7.37-4.01,1.77-8.51,2.02-12.32,4.3-8.01,4.78-8.29,13.73-2.52,20.37,2.46,2.83,7.74,2.07,9.42-1.21,13.74-26.77,29.06-52.69,45.89-77.64l-10.36-6.06c-12.43,23.01-24.85,46.03-37.28,69.04l10.36,6.06c14.26-32.71,28.75-65.63,50.15-94.44l-10.36-6.06c-10.39,19.13-21.26,37.99-32.66,56.54-5.61,9.14-11.35,18.2-17.21,27.19-2.93,4.49-5.89,8.97-8.88,13.42-1.41,2.1-2.82,4.19-4.24,6.27-1.08,1.59-3.03,5.94-4.63,6.93l4.62-.6-.94-.21,4.19,4.19-.32-.8c-2.84-7.08-14.46-3.99-11.57,3.19h0Z"/>
    <path class="cls-3" d="M175.73,510.13c9.48-14.21,19.31-28.18,29.47-41.91l-10.36-6.06c-1.86,3.69-3.97,7.13-6.62,10.3,3.14,2.42,6.28,4.85,9.42,7.27,7.14-10.11,15.22-19.43,24.1-28.04-3.14-2.42-6.28-4.85-9.42-7.27-4.48,7.97-10.33,15.2-15.72,22.57-5.79,7.93-11.58,15.85-17.36,23.78-3.98,5.45,5.17,12.6,9.42,7.27,11.83-14.8,23.72-29.57,37.06-43.05l-9.42-7.27c-5.93,11.12-15.98,19.42-21.17,30.99-2.02,4.5,1.33,10.41,6.78,8.81,10.37-3.04,19.09-13.03,26.85-20.15,8.4-7.71,16.75-15.45,26.35-21.66-2.42-3.14-4.85-6.28-7.27-9.42-20.33,22.04-40.58,44.21-57.85,68.77-4.06,5.77,4.61,11.71,9.42,7.27,23.16-21.38,45.88-43.24,68.15-65.55,4.98-4.99-1.3-12.38-7.27-9.42-8.47,4.19-15.08,11.74-21.77,18.24-7.53,7.31-14.97,14.71-22.33,22.18l8.49,8.49c6.93-7.42,13.99-14.7,21.2-21.85l-8.49-8.49c-8.87,10.05-17.57,20.24-26.11,30.57l10.03,5.84c.37-.99.73-1.98,1.1-2.96,1.03-2.78-1.17-6.95-4.19-7.38-9.13-1.31-15.86,4.27-22.64,9.66s-13.39,11.76-19.79,17.97c3.14,2.42,6.28,4.85,9.42,7.27,1.26-2.54,2.52-5.08,3.78-7.62,3.42-6.9-6.93-12.98-10.36-6.06-1.26,2.54-2.52,5.08-3.78,7.62-2.96,5.96,4.35,12.2,9.42,7.27,4.69-4.56,9.38-9.12,14.31-13.41,2.3-2,4.64-3.96,7.08-5.79,2.12-1.59,6.52-5.75,9.36-5.34l-4.19-7.38c-.37.99-.73,1.98-1.1,2.96-2.04,5.51,6.26,10.4,10.03,5.84,8.54-10.33,17.25-20.52,26.11-30.57,5.07-5.75-2.95-13.98-8.49-8.49-7.2,7.15-14.27,14.43-21.2,21.85-5.26,5.63,3.04,14.01,8.49,8.49,6.9-7.01,13.87-13.95,20.92-20.81,6.38-6.21,12.68-13.74,20.75-17.73-2.42-3.14-4.85-6.28-7.27-9.42-22.27,22.31-44.99,44.16-68.15,65.55l9.42,7.27c16.68-23.72,36.35-45.07,55.98-66.35,4.44-4.82-1.32-13.27-7.27-9.42-9.01,5.83-17.12,12.84-25.02,20.07-3.77,3.45-7.51,6.94-11.34,10.33-4.07,3.6-8.67,8.64-13.98,10.2l6.78,8.81c5.18-11.57,15.23-19.87,21.17-30.99,3.15-5.9-4.5-12.25-9.42-7.27-13.34,13.48-25.23,28.25-37.06,43.05l9.42,7.27c5.79-7.93,11.58-15.85,17.36-23.78,5.39-7.38,11.23-14.59,15.72-22.57,3.34-5.94-4.49-12.05-9.42-7.27-9.62,9.32-18.26,19.53-25.98,30.47-3.89,5.52,5.06,12.51,9.42,7.27,3.3-3.96,6.17-8.12,8.5-12.73,3.54-7.02-5.82-12.19-10.36-6.06-10.17,13.73-19.99,27.7-29.47,41.91-4.3,6.44,6.09,12.46,10.36,6.06h0Z"/>
    <path class="cls-3" d="M197.42,473.63c-1.44,3.18-3.1,6.16-5.05,9.05l10.36,6.06c4.44-6.76,8.88-13.52,13.32-20.28l-10.97-4.62c-1.9,6.71-5.46,13.12-9.11,19.05-3.35,5.43-7.24,9.98-13.1,12.72l8.21,8.21c1.48-3.25,3.27-5.13,6.48-6.68,6.95-3.36.87-13.71-6.06-10.36-4.79,2.31-8.58,6.14-10.79,10.98-2.53,5.56,2.59,10.83,8.21,8.21,7.15-3.34,12.41-9.23,16.62-15.77,4.57-7.09,8.8-15.03,11.1-23.16,1.91-6.73-7.31-10.2-10.97-4.62-4.44,6.76-8.88,13.52-13.32,20.28s6.08,12.42,10.36,6.06c1.95-2.89,3.61-5.87,5.05-9.05,3.16-6.98-7.18-13.09-10.36-6.06h0Z"/>
    <path class="cls-3" d="M194.04,507.87l-.03.48c-.11,1.89,1.18,4.4,2.97,5.18,6.59,2.87,13.96-2.59,19.71-5.73,6.96-3.8,13.62-8.13,20.13-12.66,13.1-9.11,25.62-19.04,39.02-27.72l-6.06-10.36c-11.33,8.58-22.39,17.49-33.11,26.82-5.16,4.5-10.25,9.08-15.25,13.76s-9.54,9.15-15.69,12.02l8.21,8.21c12.76-30.04,32.89-56.08,47.35-85.23,1.45-2.93.78-6.45-2.15-8.21-6.58-3.94-15.07,2.27-19.98,6.53-5.98,5.19-10.4,12.07-14.36,18.85-1.95,3.34-.15,7.79,3.59,8.81,2.44.67,4.74.62,7.16-.14,1.34-.43,4.08-2.49,5.42-2.12l-4.19-7.38c-5.86,16.56-15.8,31.29-22.4,47.55-1.86,4.58,3.41,8.22,7.38,7.38,4.68-.99,8.22-4.15,11.96-6.94,4.43-3.31,8.86-6.62,13.3-9.93,7.61-5.68,15.19-11.06,20.81-18.83,3.08-4.25-2.03-10.37-6.78-8.81-6.49,2.12-10.42,7.88-14.69,12.89-4.81,5.62-9.5,11.34-14.1,17.13-3.87,4.87,1.12,13.59,7.27,9.42,3.17-2.15,6.41-3.94,10.01-5.26l-5.84-10.03c-15.07,15.83-28.95,32.72-41.64,50.51-4.28,6,4.55,11.16,9.42,7.27,5.17-4.12,9.84-8.68,14.1-13.73,4.94-5.87-3.5-14.4-8.49-8.49-4.26,5.06-8.93,9.61-14.1,13.73l9.42,7.27c12.09-16.97,25.39-32.99,39.76-48.08,3.86-4.06.07-12.2-5.84-10.03-4.56,1.67-8.85,3.74-12.88,6.47,2.42,3.14,4.85,6.28,7.27,9.42,3.83-4.83,7.73-9.6,11.7-14.31,1.79-2.12,3.59-4.23,5.41-6.32,1.62-1.87,3.92-5.49,6.38-6.3l-6.78-8.81c-4.69,6.47-11.78,10.99-18.09,15.71-3.39,2.53-6.78,5.06-10.17,7.59-3.16,2.36-6.74,6.06-10.64,6.88l7.38,7.38c6.61-16.27,16.52-30.93,22.4-47.55,1.08-3.05-1.24-6.57-4.19-7.38-2.44-.67-4.74-.62-7.16.14-1.34.43-4.08,2.49-5.42,2.12l3.59,8.81c2.62-4.48,5.35-8.96,8.84-12.82,1.61-1.78,3.33-3.48,5.27-4.88.97-.7,2-1.34,3.06-1.89l1.29-.65c1.87-.46,1.69-.73-.56-.83l-2.15-8.21c-14.46,29.15-34.58,55.19-47.35,85.23-2.36,5.55,2.48,10.88,8.21,8.21,11.79-5.51,20.93-16.69,30.56-25.19,10.82-9.54,21.99-18.69,33.49-27.4,5.98-4.53.59-14.67-6.06-10.36-11.97,7.75-23.24,16.49-34.84,24.77-5.54,3.96-11.17,7.81-16.98,11.36-2.89,1.77-5.83,3.47-8.83,5.06-1.75.93-3.51,1.83-5.3,2.68-.76.37-1.53.73-2.31,1.08-2.54.8-2.04,1.19,1.5,1.16l2.97,5.18.03-.48c.43-7.72-11.57-7.69-12,0h0Z"/>
    <path class="cls-3" d="M259.89,488.49l6.42-6.91-8.49-8.49c-11.33,12.9-21.58,26.68-30.62,41.27-3.52,5.69,4.9,12.5,9.42,7.27,17.03-19.69,34.36-39.12,51.98-58.27l-8.49-8.49c-20.82,25.72-40.83,52.09-59.98,79.08l10.36,6.06c8.94-13.16,17.63-26.49,26.07-39.97-3.66-.48-7.31-.96-10.97-1.43.1,1.08.09,2.16-.06,3.24-.77,5.03,3.88,9.48,8.81,6.78,3.11-1.71,5.91-3.69,8.71-5.86l-10.03-5.84c-2.05,5.31-4.46,10.43-7.15,15.44-3.12,5.83,4.6,12.41,9.42,7.27,7.13-7.6,14.26-15.2,21.39-22.8l-8.49-8.49c-7.24,8.89-14.47,17.78-21.71,26.66-4.12,5.06.98,12.97,7.27,9.42,3.79-2.13,7.63-3.91,11.74-5.35l-7.38-7.38-.96.9h8.49c-3.34-3.13-7.88-4.07-12.14-2.14-4.56,2.07-6.59,6.42-8.31,10.84s3.33,8.42,7.38,7.38c5.14-1.32,9.95-3.43,14.38-6.36-2.42-3.14-4.85-6.28-7.27-9.42-2.54,2.23-4.44,5.17-5.2,8.49-.32,1.38-.43,2.98-.37,4.39.13,1.03.28,2.06.44,3.09.08,1.34.36,1.25.84-.26-6.88,3.51-.81,13.87,6.06,10.36,3.09-1.58,4.82-4.51,5.15-7.92.37-3.84-1.77-6.74,1.57-9.67,5.09-4.47-1.58-13.19-7.27-9.42-3.63,2.4-7.3,4.06-11.51,5.15l7.38,7.38c.32-.93.74-1.81,1.26-2.64.49-.59.2-.84-.86-.76,2.59,2.42,5.84,2.05,8.49,0,2.15-1.67,3.21-3.66,4.04-6.19,1.37-4.19-3.12-8.87-7.38-7.38-5.06,1.77-9.93,3.93-14.6,6.56,2.42,3.14,4.85,6.28,7.27,9.42,7.24-8.89,14.47-17.78,21.71-26.66,4.78-5.87-3.1-14.23-8.49-8.49-7.13,7.6-14.26,15.2-21.39,22.8,3.14,2.42,6.28,4.85,9.42,7.27,3.18-5.93,5.93-12.04,8.36-18.31s-5.94-9.01-10.03-5.84c-1.97,1.53-4.1,2.78-6.28,3.98l8.81,6.78c.51-3.35.51-6.25.06-9.62-.74-5.46-8.51-5.35-10.97-1.43-8.44,13.49-17.13,26.81-26.07,39.97-4.37,6.44,5.95,12.28,10.36,6.06,18.56-26.16,37.92-51.72,58.1-76.65,4.76-5.88-3.16-14.28-8.49-8.49-17.63,19.16-34.96,38.58-51.98,58.27l9.42,7.27c8.51-13.74,18.08-26.7,28.74-38.84,5.06-5.76-3.19-14.19-8.49-8.49l-6.42,6.91c-5.25,5.65,3.22,14.16,8.49,8.49h0Z"/>
    <path class="cls-3" d="M115.86,318.85c.4,17.64,2.98,35.13,7.73,52.12,1.91,6.82,11.2,4.93,11.79-1.6,1.61-18.02,2.59-36.08,2.96-54.17.13-6.65-10.34-8.3-11.79-1.6-2.9,13.4-4.42,27.09-4.22,40.81.04,2.98.46,6.03.31,8.99s-1.76,4.83-3.24,7.14c-3.34,5.21-5.18,9.99-4.28,16.21,1.1,7.61,12.67,4.38,11.57-3.19-.63-4.32,5.23-9.62,6.74-13.54,1.92-4.99.98-10.39.9-15.61-.19-12.67,1.11-25.24,3.79-37.62l-11.79-1.6c-.36,18.09-1.35,36.15-2.96,54.17l11.79-1.6c-4.48-16-6.93-32.32-7.3-48.93-.17-7.71-12.17-7.74-12,0h0Z"/>
    <path class="cls-3" d="M128.98,387.23c3.53-5.2,6.24-10.99,7.77-17.09.69-2.75,1.12-5.59,1.38-8.42.21-2.24-.3-5.84,1.37-7.56l-10.03-5.84c-3.51,9.59-5.8,19.45-7.01,29.59-.94,7.92-2.94,18.72,3.09,25.09,3.28,3.47,8.61,1.44,10.03-2.65,5.53-15.96,8.44-32.63,8.8-49.52.1-4.91-5.09-6.99-9.03-5.18-4.25,1.95-5.52,6.7-6.91,10.81-1.78,5.25-3.17,10.62-4.19,16.06-1.72,9.27-4.06,20.99-.62,30.09,1.31,3.46,5.27,5.82,8.81,3.59,8.8-5.54,12.24-18.53,15.16-27.92,3.47-11.15,5.61-22.64,7.41-34.16l-11.79-1.6c-1.02,11.44.03,22.87,2.96,33.96,1.23,4.65,8.75,6.26,10.97,1.43s2.32-10.75-3.11-13.38-9.87,1.42-11.74,6.39c-1.68,4.47-4.3,12.01-1.72,16.54,3.15,5.52,10.32,3.11,14.29.19l-8.81-3.59c1.03,3.93,4.57,6.77,8.75,6.56,5.24-.27,9.25-5.13,12.9-8.35,9-7.96,18-15.91,27-23.87l-10.03-5.84c-2.44,8.1-4.87,16.21-7.31,24.31-1.02,3.4,1.89,8.04,5.79,7.6,5.78-.67,10.1-3.08,14.55-6.76,2.03-1.68,3.94-3.49,5.99-5.15,1.38-1.11,2.79-2.17,4.23-3.19s3.95-1.29,1.47-2.53l-2.15-8.21c-5.16,12.21-10.31,24.42-15.47,36.63-2.46,5.83,4.23,12.55,9.42,7.27,7.56-7.69,15.13-15.39,22.69-23.08l-9.42-7.27-13.75,25.92-6.42,12.1c-2.03,3.82-4.24,7.41-4.12,11.86.14,5.51,6.31,7.5,10.24,4.24,10.33-8.56,17.84-19.74,26.75-29.66l-10.03-5.84c-11.36,27.26-24.84,53.61-40.12,78.87-3.44,5.69,4.93,12.56,9.42,7.27,9.44-11.11,17.49-23.22,25.44-35.41,4.25-6.52-6.05-12.39-10.36-6.06-2.04,3-4.39,5.59-7.07,8.04l10.24,4.24c-1.95-15.16-2.97-30.9-8.33-45.33-1.23-3.32-3.92-4.72-7.38-4.19-6.62,1.01-10.59,7.74-14.11,12.78-4.39,6.29-8.16,12.96-11.43,19.9s5.73,12.16,10.36,6.06c5.94-7.82,11.87-15.64,17.81-23.45l-10.36-6.06c-5.59,12.18-11.19,24.36-16.78,36.54-2.6,5.66,4.76,12.97,9.42,7.27,6.68-8.16,11-17.38,15.09-27.02,2.95-6.95-6.01-12.69-10.36-6.06-4.59,7.01-8.96,14.15-13.11,21.42-3.83,6.72,6.53,12.77,10.36,6.06,4.15-7.28,8.52-14.42,13.11-21.42l-10.36-6.06c-3.63,8.54-7.29,17.34-13.22,24.59,3.14,2.42,6.28,4.85,9.42,7.27,5.59-12.18,11.19-24.36,16.78-36.54,3.27-7.12-5.71-12.18-10.36-6.06-5.94,7.82-11.87,15.64-17.81,23.45l10.36,6.06c2.51-5.34,5.3-10.52,8.48-15.49,2.09-3.26,5.78-11.05,9.89-11.67l-7.38-4.19c5,13.46,6.08,28,7.9,42.14.65,5.07,6.11,8.03,10.24,4.24,3.42-3.14,6.33-6.63,8.94-10.47l-10.36-6.06c-7.38,11.33-14.79,22.66-23.56,32.98,3.14,2.42,6.28,4.85,9.42,7.27,15.83-26.18,29.56-53.5,41.33-81.74,2.34-5.61-6.22-10.08-10.03-5.84-8.91,9.92-16.42,21.09-26.75,29.66l10.24,4.24c-.08-3.05,3.38-7.49,4.78-10.12l5.96-11.23c3.97-7.49,7.95-14.98,11.92-22.46,3.12-5.89-4.5-12.28-9.42-7.27l-22.69,23.08,9.42,7.27c5.16-12.21,10.31-24.42,15.47-36.63,1.19-2.83,1.04-6.62-2.15-8.21-6.56-3.27-11.86,1.14-17.02,5.07-4.25,3.24-9.68,10.27-15.28,10.91l5.79,7.6c2.44-8.1,4.87-16.21,7.31-24.31,1.82-6.04-5.75-9.62-10.03-5.84-5.59,4.95-11.19,9.89-16.78,14.84-2.68,2.37-5.35,4.73-8.03,7.1-1.46,1.29-2.92,2.58-4.38,3.87l-1.46,1.29c-2.59,1.44-1.9,2.73,2.06,3.86-.9-3.44-5.66-5.91-8.81-3.59-1.28.94-2.15,1.56-3.72,1.81l4.62.6-.93-.45,2.76,3.59c-.25-1.74,1.26-7.67,2.56-8.83l-4.24,1.76-3.08-3.92,10.97,1.43c-2.68-10.13-3.47-20.35-2.54-30.77.6-6.66-10.74-8.29-11.79-1.6-1.52,9.75-3.29,19.48-5.9,29-1.26,4.6-2.72,9.14-4.43,13.59-1.43,3.72-3.16,10.06-6.72,12.3,2.94,1.2,5.88,2.39,8.81,3.59-2.48-6.55-.84-15.17.3-21.89.62-3.64,1.41-7.25,2.37-10.81.43-1.61,1.99-9.99,3.54-10.7l-9.03-5.18c-.34,15.87-3.18,31.33-8.37,46.33l10.03-2.65c-1.42-1.5-.36-6.41-.27-8.25.2-4.12.6-8.22,1.27-12.29,1.28-7.68,3.33-15.16,6.01-22.46,2.11-5.75-6.04-9.96-10.03-5.84-4.45,4.6-4.25,10.08-4.88,16.05-.75,7.1-3.53,13.6-7.51,19.45-4.35,6.4,6.04,12.41,10.36,6.06h0Z"/>
    <path class="cls-3" d="M183.38,423.52c2.47-8.88,3.92-18.19,3.79-27.42-.05-3.27-.39-7.77-3.3-9.94-1.4-1.45-1.64-1.24-.71.65-.04-1.25-.09-2.49-.13-3.74-.09-2.49-.17-4.99-.26-7.48-.2-5.94-8.02-8.17-11.18-3.03-12.76,20.72-23.49,42.54-32.28,65.22-2.25,5.79,6.06,9.84,10.03,5.84,26.98-27.23,50.93-57.27,77.88-84.53l-9.42-7.27c-10.15,20.15-20.3,40.29-30.45,60.44l10.97,4.62c2.46-6.75,4.92-13.5,7.38-20.25,2.05-5.64-6.12-10.17-10.03-5.84-4.46,4.94-7.62,10.44-9.59,16.8-1.86,6,5.79,9.67,10.03,5.84,7.99-7.22,16.06-14.34,24.23-21.35,3.85-3.3,7.71-6.58,11.6-9.83,2.19-1.83,4.38-3.65,6.58-5.46.61-.5,6-4.85,4.7-5.06l-4.19-7.38c-4.94,25.17-17.07,48.34-20.77,73.8-.84,5.76,5.28,10.16,10.03,5.84,7.27-6.61,14.55-13.22,21.82-19.84l-8.49-8.49c-6.35,8.13-13.02,15.98-20.02,23.55l10.03,5.84c2.19-6.82,4.39-13.65,6.58-20.47,1.98-6.15,5.43-13.12,5.94-19.58.19-2.38-.43-4.8-2.07-6.6-.32-.35-2.6-2.83-1.93-1.22-.52-1.24-.05-3.61-.05-4.91.02-7.15.32-14.28.85-21.41s-9.64-7.62-11.79-1.6c-7.35,20.67-11.74,42.16-13.31,64.04-.52,7.27,9.49,7.41,11.79,1.6,3.75-9.52,6.87-19.22,9.36-29.15,1.7-6.78-7.19-10.17-10.97-4.62-4.97,7.29-9.93,14.58-14.9,21.87l10.97,4.62c4.6-15.98,10.58-31.43,18.02-46.29l-10.97-4.62c-5.74,22.56-12.62,44.8-20.63,66.66l11.57,3.19c1.6-8.49,3.21-16.98,4.81-25.48,1.17-6.2-7.87-11.2-10.97-4.62-4.78,10.15-9.55,20.31-14.33,30.46-3.24,6.9,6.76,12.99,10.36,6.06,5.05-9.73,11.04-18.94,18.17-27.28,3.45-4.04,7.12-7.89,10.99-11.53s8.2-8.05,13.62-9.57l-6.78-2.76c5.87,8.93.1,23.54-2.34,32.86-3.17,12.08-6.4,24.14-9.6,36.21-1.43,5.4,6.07,10.7,10.03,5.84,5.4-6.64,9.87-13.68,13.27-21.55,3.09-7.15-5.64-12.21-10.36-6.06-5.82,7.58-11.64,15.17-17.46,22.75-4.32,5.63,4.63,11.61,9.42,7.27,9.52-8.62,19.03-17.24,28.55-25.86l-10.03-5.84c-1.04,3.33-2.28,6.51-3.81,9.64-1.8,3.68.28,9.5,5.18,9.03,7.41-.71,13.79-3.48,18.98-8.91s-1.25-12.2-7.27-9.42c-11.81,5.43-22.97,12.01-33.45,19.69,2.42,3.14,4.85,6.28,7.27,9.42l6.28-6.24c5.48-5.45-3-13.94-8.49-8.49l-6.28,6.24c-4.67,4.65,1.63,13.56,7.27,9.42,10.48-7.69,21.64-14.26,33.45-19.69l-7.27-9.42c-2.87,3.01-6.29,4.99-10.49,5.4l5.18,9.03c1.98-4.05,3.67-8.21,5.02-12.51,1.88-6-5.8-9.67-10.03-5.84-9.52,8.62-19.03,17.24-28.55,25.86,3.14,2.42,6.28,4.85,9.42,7.27,5.82-7.58,11.64-15.17,17.46-22.75l-10.36-6.06c-2.96,6.85-6.68,13.32-11.39,19.12l10.03,5.84c3.7-13.94,7.58-27.84,11.04-41.84,2.83-11.47,6.73-25.77-.31-36.48-1.46-2.23-4.12-3.5-6.78-2.76-11.57,3.24-21.14,14.15-28.8,22.92-8.27,9.45-15.36,19.84-21.15,30.98l10.36,6.06c4.78-10.15,9.55-20.31,14.33-30.46l-10.97-4.62c-1.6,8.49-3.21,16.98-4.81,25.48-1.44,7.61,8.91,10.46,11.57,3.19,8.01-21.86,14.89-44.1,20.63-66.66,1.62-6.37-7.83-10.9-10.97-4.62-7.9,15.77-14.35,32.21-19.23,49.16-1.96,6.79,7.25,10.07,10.97,4.62,4.97-7.29,9.93-14.58,14.9-21.87l-10.97-4.62c-2.49,9.92-5.61,19.63-9.36,29.15l11.79,1.6c1.49-20.81,5.89-41.2,12.88-60.85l-11.79-1.6c-.5,6.8-.81,13.61-.84,20.44-.04,6.2.01,10.3,4.42,14.82l-.5-1.48-.9,2.79-1.5,4.65c-1,3.1-2,6.2-2.99,9.31-2.19,6.82-4.39,13.65-6.58,20.47-1.82,5.67,6,10.19,10.03,5.84,7-7.57,13.68-15.42,20.02-23.55,4.65-5.96-2.61-13.82-8.49-8.49-7.27,6.61-14.55,13.22-21.82,19.84l10.03,5.84c3.69-25.46,15.83-48.64,20.77-73.8.57-2.9-.8-6.85-4.19-7.38-6.16-.96-9.65,2.61-14.18,6.33-5.14,4.22-10.24,8.48-15.31,12.79-9.9,8.4-19.66,16.97-29.29,25.67l10.03,5.84c1.35-4.35,3.45-8.12,6.5-11.51l-10.03-5.84c-2.46,6.75-4.92,13.5-7.38,20.25-2.32,6.36,7.91,10.68,10.97,4.62,10.15-20.15,20.3-40.29,30.45-60.44,2.97-5.9-4.44-12.32-9.42-7.27-26.95,27.26-50.9,57.3-77.88,84.53l10.03,5.84c8.42-21.7,18.87-42.53,31.07-62.35l-11.18-3.03c.14,4.04-.1,8.3.48,12.3.29,1.99.78,3.67,2.13,5.23.68.63,1.4,1.22,2.15,1.76-.4-.9-.54-.96-.41-.19,1.46,7.92-1.21,18.09-3.32,25.65s9.5,10.63,11.57,3.19h0Z"/>
    <path class="cls-3" d="M262.96,400.47c-.18-6.85-6.49-14.27-13.98-11.49-6.91,2.56-9,14.06-10.09,20.33-.48,2.72.34,5.27,2.76,6.78,9.33,5.81,17.87-8.22,21.98-14.66l-10.36-6.06c-9.04,15.37-15.39,32.21-19.16,49.63-1.85,8.57-3.12,17.28-3.9,26.01-.71,7.94-2.06,16.1,3.21,22.73,2.12,2.66,6.26,1.92,8.49,0,7.76-6.71,9.46-19.9,11.43-29.38,2.45-11.73,4.52-23.56,6.53-35.37h-11.57c.77,2.75,1.54,5.49,2.3,8.24,1.9,6.81,11.22,4.94,11.79-1.6,1.1-12.8,2.22-25.59,4.46-38.25h-11.57c2.15,9.5,3.02,19.02,2.75,28.75l11.18-3.03c-.35-.72-.7-1.44-1.06-2.15-2.92-5.94-10.56-2.23-11.18,3.03-.96,8.09-1.56,16.19-1.82,24.33s11.69,7.7,12,0c1.21-30.19-.51-60.35-2.29-90.48-.45-7.66-11.81-7.78-12,0l-.2,8.02c-.16,6.58,10.86,8.41,11.79,1.6.73-5.38,1.29-10.75,1.54-16.18.31-6.76-10.17-8.15-11.79-1.6-1.37,5.56-2.75,11.11-4.12,16.67l-1.83,7.41-1.15,4.63-.46,1.85c-.44,1.47-.25,1.26.58-.63l7.27-.94-.54-.29,2.76,6.78.12-.48-11.79-1.6c0,4.35,0,8.71-.01,13.06,0,7.75,11.69,7.7,12,0s.03-15.29-.84-22.92c-.6-5.24-8.31-9-11.18-3.03-3.25,6.76-5.66,13.73-7.02,21.12l11.57,3.19c1.91-13.67,3.63-27.37,5.13-41.1.84-7.67-11.17-7.61-12,0-1.38,12.66-2.94,25.3-4.7,37.91-1.04,7.45,10.15,10.91,11.57,3.19,1.17-6.35,3.01-12.43,5.81-18.25l-11.18-3.03c.87,7.63,1.15,15.25.84,22.92h12c0-4.35,0-8.71.01-13.06,0-6.71-10.07-8.22-11.79-1.6l-.12.48c-.65,2.5.41,5.51,2.76,6.78l.54.29c2.49,1.35,5.19.87,7.27-.94,3.78-3.3,4.12-11.2,5.25-15.78,1.6-6.48,3.21-12.97,4.81-19.45l-11.79-1.6c-.2,4.34-.53,8.68-1.11,12.99l11.79,1.6.2-8.02h-12c1.78,30.13,3.5,60.29,2.29,90.48h12c.26-8.14.86-16.24,1.82-24.33l-11.18,3.03c.35.72.7,1.44,1.06,2.15,2.75,5.59,11.03,2.57,11.18-3.03.3-10.76-.81-21.45-3.18-31.95-1.26-5.56-10.53-5.88-11.57,0-2.42,13.71-3.7,27.57-4.89,41.44l11.79-1.6c-.77-2.75-1.54-5.49-2.3-8.24-1.49-5.34-10.53-6.08-11.57,0-1.81,10.57-3.7,21.14-5.78,31.66-.98,4.94-2.03,9.88-3.34,14.74-1.2,4.43-2.13,9.91-5.76,13.05h8.49c-1.32-1.67-.22-7.15-.1-8.97.25-3.81.59-7.62,1.05-11.42.89-7.35,2.25-14.65,4.03-21.83,3.61-14.64,9.11-28.61,16.76-41.61,3.94-6.69-6.22-12.55-10.36-6.06-1.34,2.1-2.72,4.15-4.31,6.07-.77.92-1.56,1.82-2.38,2.7-1.98,1.37-1.6,1.89,1.13,1.59l2.76,6.78c.49-2.8,1.11-5.55,2.03-8.24.35-1.03,1.12-2.24,1.28-3.3,1.29-1.68.97-2.05-.95-1.11-.81-.12-1.43.09-1.86.62.2,7.71,12.2,7.74,12,0h0Z"/>
    <path class="cls-3" d="M255.21,343.58c-9-3.88-18.18-7.25-27.66-9.77s-19.33-4.01-28.84-6.72-18.29-5.69-27.76-7.19c-4.56-.72-9.1-1.09-13.71-1.06-3.41.02-8.27.78-11.16-1.51-4.13-3.27-9.84-1.24-10.24,4.24-.58,7.95-.74,15.89-.48,23.85s12.25,7.74,12,0-.1-15.9.48-23.85l-10.24,4.24c7.25,5.74,15.1,4.71,23.81,5.07,9.91.4,19.49,3.47,28.93,6.26,19.68,5.82,39.84,8.61,58.83,16.8,7.02,3.03,13.14-7.31,6.06-10.36h0Z"/>
    <path class="cls-3" d="M148.12,348.68c1.15-1.24,9.19-.32,10.71-.33,3.85-.03,7.7.01,11.55.04,8.14.06,16.27-.06,24.4-.59,16.33-1.05,32.54-3.31,48.74-5.52,6.95-.95,4.85-11.52-1.6-11.79-17.76-.73-35.47,2.02-53.07,4.04s-35.41,4.06-53.12,6.1c-5.55.64-8.62,7.94-3.03,11.18,7.77,4.5,16.14,7.66,24.98,9.27,5.37.98,10.74-5.72,5.84-10.03-7.62-6.71-17.74-9.9-24.96-17.01l-2.65,10.03c5.32-1.63,13.83-2.58,17.3-7.47s.84-10.53-4.31-12.62c-7.16-2.9-10.27,8.71-3.19,11.57l.88.35-3.59-2.76c1.59-3.61,1.13-4.73-1.38-3.37-.89.27-1.78.55-2.67.82-2.08.64-4.16,1.27-6.23,1.91-4.26,1.3-5.94,6.78-2.65,10.03,7.33,7.21,17.34,10.3,24.96,17.01l5.84-10.03c-7.89-1.44-15.17-4.04-22.11-8.06l-3.03,11.18c17.71-2.03,35.41-4.06,53.12-6.1,17.59-2.02,35.31-4.77,53.07-4.04l-1.6-11.79c-17.74,2.43-35.53,4.82-53.44,5.5-8.39.32-16.78.13-25.17.13-6.75,0-17-1.6-22.08,3.86s3.21,14.15,8.49,8.49h0Z"/>
    <path class="cls-3" d="M150.2,324.44c12.41-1.26,24.21,1.81,36.12,4.95,11.97,3.16,24.52,4.26,36.32,7.88,7.4,2.26,10.57-9.31,3.19-11.57-6.31-1.93-12.8-2.71-19.27-3.88s-12.6-2.83-18.84-4.47c-12.26-3.23-24.76-6.21-37.52-4.91-7.61.77-7.69,12.78,0,12h0Z"/>
    <path class="cls-3" d="M224.5,326.88c-11.61-2.02-23.09-4.68-34.38-8.09-4.85-1.47-9.8-3.79-14.9-4.13s-9.92,2.69-15.12,2.78c-5.47.1-8.79,8.68-3.03,11.18,8.37,3.63,16.15,8.16,23.45,13.63l1.43-10.97c-5.81.82-11.65,1.41-17.5,1.79-2.55.17-5.11.3-7.67.39-1.6.06-3.2.09-4.8.12-1.85.03-3.24-.85-1.94,1.12l-2.15,8.21c5.94-3.21,12.03-6.15,18.31-8.63,2.82-1.11,5.67-2.15,8.54-3.11,1.72-.58,3.45-1.15,5.2-1.65l1.74-.51c1.33-.15,1.18-.33-.45-.53v-8.49c-4.43,3.44-8.93,6.8-13.47,10.09-2.09,1.51-4.19,3.01-6.3,4.49-1.05.74-2.11,1.49-3.17,2.21-.48.34-.97.67-1.46.98-1.59.75-.89,1.49,2.1,2.22-1.28-7.6-12.85-4.38-11.57,3.19.63,3.7,3.65,6.37,7.3,6.97,4.4.73,7.85-1.72,11.28-4.11,8.09-5.64,15.99-11.53,23.78-17.57,2.72-2.11,1.85-6.25,0-8.49-5.45-6.58-16.13-1.19-22.45,1.12-8.75,3.19-17.23,7.03-25.42,11.45-2.74,1.48-3.9,5.57-2.15,8.21,4.37,6.62,13.09,4.91,19.98,4.59,8.54-.4,17.02-1.3,25.48-2.49,5.76-.81,4.98-8.31,1.43-10.97-7.29-5.47-15.08-10-23.45-13.63l-3.03,11.18c4.75-.08,8.96-2.64,13.55-2.81s10.57,2.94,15.1,4.28c10.7,3.15,21.56,5.64,32.55,7.55,7.55,1.31,10.8-10.25,3.19-11.57h0Z"/>
    <path class="cls-3" d="M146.03,343.91l-.12,13.02c-.05,5.09,6.67,8.06,10.24,4.24,2.28-2.44,4.2-5.03,5.75-7.99,3.57-6.82-6.49-12.79-10.36-6.06-2.58,4.48-4.57,9.21-5.98,14.19-1.76,6.22,5.65,9.38,10.03,5.84,5.95-4.82,11.91-9.63,17.86-14.45,2.85-2.3,5.69-4.61,8.54-6.91,1.93-1.56,5.63-5.99,8.28-6.16l-5.18-9.03c-7.64,10.9-15.27,21.8-22.91,32.7l11.18,3.03c-.03-.97-.07-1.94-.1-2.91-.19-5.52-6.28-7.49-10.24-4.24-2.9,2.38-5.45,4.96-7.8,7.89l9.42,7.27c8.64-11.36,21-19.29,34.72-22.98l-4.62-10.97c-3.95,2.66-7.45,5.7-10.44,9.42-4.06,5.04.97,13.05,7.27,9.42s12.59-6.32,19.44-8.36l-7.38-7.38c-.91,3.73-2.34,6.76-4.57,9.89-4.48,6.31,5.92,12.31,10.36,6.06,2.75-3.86,4.66-8.15,5.78-12.76,1.06-4.33-2.87-8.72-7.38-7.38-7.8,2.32-15.25,5.52-22.31,9.57l7.27,9.42c2.35-2.92,4.9-5.44,8.02-7.54,5.48-3.7,2.21-12.8-4.62-10.97-16.95,4.56-31.31,14.57-41.89,28.49-4.09,5.37,5.16,12.59,9.42,7.27,2.35-2.93,4.9-5.51,7.8-7.89l-10.24-4.24c.03.97.07,1.94.1,2.91.21,6.2,7.82,7.83,11.18,3.03,7.64-10.9,15.27-21.8,22.91-32.7,2.56-3.65-.83-9.3-5.18-9.03-8.21.51-14.61,7.93-20.65,12.81-7.51,6.07-15.01,12.15-22.52,18.22l10.03,5.84c1.14-4.04,2.68-7.68,4.77-11.32l-10.36-6.06c-1.09,2.08-2.27,3.85-3.87,5.56l10.24,4.24.12-13.02c.07-7.72-11.93-7.73-12,0h0Z"/>
    <path class="cls-3" d="M196,352.08l-6.84,3.94c-4.3,2.48-3.7,9.85,1.43,10.97,8.57,1.86,16.31-.18,24.18-3.67,3.2-1.42,7.53-2.84,9-6.33,1.64-3.9-1.14-8.42-2.56-11.99l-5.79,7.6c2.7-.27,5.19,1.36,7.68,2.28,3.03,1.12,6.14,2.02,9.29,2.72,5.98,1.32,12.09,1.93,18.21,1.9l-3.03-11.18c-7.21,4.26-15.55,5-23.55,6.9-7.58,1.79-14.72,4.72-20.4,10.19-3.61,3.47-1,10.56,4.24,10.24,10.13-.61,20.2-1.68,30.24-3.12,6.71-.96,5.08-12.04-1.6-11.79-1.06.04-2.13.08-3.19.12-7.7.29-7.74,12.29,0,12,1.06-.04,2.13-.08,3.19-.12l-1.6-11.79c-8.98,1.29-18,2.15-27.05,2.69l4.24,10.24c5.36-5.16,12.7-6.66,19.76-8.09,7.59-1.54,15.01-3.13,21.76-7.12,5.1-3.01,2.96-11.2-3.03-11.18s-12.38-.66-18.44-2.32c-5.42-1.48-11.02-5.16-16.74-4.58-3.44.35-7.36,3.62-5.79,7.6.75,1.9,2.4,4.49,2.65,6.49l1.76-4.24c-2.44,2.06-6.74,3.24-9.76,4.18-3.51,1.09-6.89,1.59-10.51.81l1.43,10.97,6.84-3.94c6.69-3.86.65-14.23-6.06-10.36h0Z"/>
    <path class="cls-3" d="M272.75,366.82c8.11.08,14.35-5.42,20.49-10.06,6.47-4.88,12.83-9.93,19.71-14.23,14.12-8.83,30.19-13.1,46.14-17.3,7.61-2,4.28-12.81-3.19-11.57-16.91,2.81-32.42,11.98-47.69,19.34-14.4,6.94-27.98,16.1-33.4,31.86-1.82,5.29,4.47,8.97,8.81,6.78,7.91-4,16.06-7.73,23.75-12.14,7.12-4.07,11.83-10.77,18.65-15.08l-6.06-10.36c-19.55,13.51-38.87,27.36-57.95,41.55-6.13,4.56-.15,14.98,6.06,10.36,19.08-14.18,38.39-28.03,57.95-41.55,6.27-4.34.55-14.54-6.06-10.36s-11.61,11.05-18.65,15.08c-7.69,4.4-15.84,8.13-23.75,12.14l8.81,6.78c4.7-13.68,18.88-20.45,31.06-26.2,13.52-6.39,26.72-14.14,41.65-16.62l-3.19-11.57c-15.18,3.99-30.54,8.13-44.36,15.77-6.84,3.78-13.12,8.43-19.33,13.15-3.11,2.36-6.21,4.75-9.36,7.06-2.95,2.15-6.28,5.22-10.09,5.18-7.72-.08-7.73,11.92,0,12h0Z"/>
    <path class="cls-3" d="M277.85,387.11c18.96-10,36.84-21.7,53.77-34.85,5.42-4.21-1.55-12.92-7.27-9.42-11.95,7.3-23.9,14.6-35.86,21.9-10.12,6.18-20.07,12.13-27.39,21.67-3.8,4.95,3.41,11.08,8.21,8.21,7.7-4.61,15.38-9.25,23.11-13.81,3.77-2.22,7.55-4.41,11.4-6.49,1.65-.89,3.31-1.76,4.98-2.61,1.11-.56,2.23-1.12,3.36-1.66,2.31-.68,1.79-1.17-1.58-1.47v-8.49c-11.71,13.72-23.49,27.4-36.71,39.7l8.49,8.49c13.78-15.57,28.41-30.35,43.85-44.28,5.84-5.27-2.59-13.19-8.49-8.49-16.04,12.8-28.6,29.18-43.61,43.07l10.03,5.84c2.57-6.57,5.89-12.75,9.73-18.66,2.47-3.8-.76-9.14-5.18-9.03-7.11.18-13.8,2.28-19.46,6.62-2.73,2.1-3.72,4.97-2.15,8.21l1.48,3.06c3.36,6.95,13.71.87,10.36-6.06l-1.48-3.06-2.15,8.21c4.04-3.1,8.29-4.86,13.41-4.98l-5.18-9.03c-4.42,6.81-7.98,13.97-10.94,21.53-2.33,5.95,6.01,9.56,10.03,5.84,15.01-13.89,27.57-30.27,43.61-43.07l-8.49-8.49c-15.44,13.93-30.07,28.71-43.85,44.28-5.1,5.76,2.79,13.78,8.49,8.49,13.22-12.31,25-25.99,36.71-39.7,2.06-2.41,2.51-6.12,0-8.49-3.37-3.18-7.24-2.97-11.27-1.21-5.13,2.25-10.08,5.04-14.95,7.8-9.98,5.66-19.75,11.69-29.6,17.58l8.21,8.21c6.64-8.65,17.31-13.83,26.42-19.4,10.84-6.62,21.68-13.24,32.52-19.86l-7.27-9.42c-16.09,12.5-33.32,23.47-51.34,32.97-6.83,3.6-.78,13.97,6.06,10.36h0Z"/>
    <path class="cls-3" d="M273.16,395l.03.34c.23,2.62,1.7,5.1,4.4,5.79,5.65,1.44,11.33-4.21,15.76-7.03,5.88-3.74,11.75-7.48,17.63-11.23,12.03-7.66,24.06-15.32,36.1-22.99l-7.27-9.42c-25.35,19.92-49.68,41.16-71.56,64.88l8.49,8.49c16.08-20.52,35.31-38.27,57.19-52.45l-7.27-9.42c-18.79,20.6-37.58,41.2-56.37,61.79-5.19,5.68,3,13.99,8.49,8.49,12.61-12.64,25.43-25.08,38.46-37.29,12.41-11.62,24.72-23.75,38.94-33.17-2.42-3.14-4.85-6.28-7.27-9.42-16.66,20.27-33.33,40.53-49.99,60.8-4.82,5.86,3.19,14.27,8.49,8.49,15.92-17.39,33.57-33.02,51.23-48.6,5.83-5.14-2.65-13.44-8.49-8.49-26.54,22.54-50.1,48.21-73.54,73.88l9.42,7.27c6.71-13.11,15.45-24.92,24.27-36.67,4.06-5.4-5.12-12.55-9.42-7.27-14.23,17.43-28.54,34.84-44.76,50.49,3.14,2.42,6.28,4.85,9.42,7.27,7.26-10.55,14.7-20.98,22.32-31.28,3.62-4.89,7.28-9.75,10.99-14.57s7.41-11.37,12.67-14.48c-2.74-2.74-5.47-5.47-8.21-8.21-9.07,21.09-21.57,40.38-37.3,57.11-4.37,4.65.11,10.95,5.84,10.03,5.24-.85,9.19-4.25,13.19-7.49,5.37-4.35,10.73-8.72,16.09-13.09,10.47-8.53,20.92-17.08,31.37-25.63l-8.49-8.49c-11.68,14.12-24.56,27.13-38.54,38.97l8.49,8.49c21.41-23.82,42.14-48.23,62.17-73.22-3.14-2.42-6.28-4.85-9.42-7.27-15.86,23.18-34.79,44.03-56.2,62.2-5.89,5.01,2.63,13.46,8.49,8.49,22.19-18.85,41.64-40.61,58.07-64.63,3.8-5.55-5.14-12.61-9.42-7.27-20.03,24.99-40.76,49.41-62.17,73.22-5.21,5.8,2.62,13.45,8.49,8.49,13.98-11.84,26.85-24.86,38.54-38.97,4.95-5.98-2.49-13.39-8.49-8.49-9.43,7.71-18.86,15.43-28.31,23.13-4.59,3.75-9.19,7.49-13.79,11.23-3.91,3.18-8.1,7.93-13.27,8.77l5.84,10.03c16.41-17.45,29.71-37.53,39.18-59.54,2.21-5.14-2.56-11.56-8.21-8.21s-9.19,8.72-13.1,13.77c-4.24,5.47-8.43,10.97-12.56,16.51-8.43,11.29-16.62,22.75-24.61,34.36-3.96,5.75,4.65,11.88,9.42,7.27,16.22-15.65,30.53-33.05,44.76-50.49l-9.42-7.27c-8.82,11.74-17.56,23.56-24.27,36.67-2.97,5.8,4.61,12.54,9.42,7.27,23.44-25.67,47-51.34,73.54-73.88l-8.49-8.49c-17.67,15.57-35.31,31.21-51.23,48.6l8.49,8.49c16.66-20.27,33.33-40.53,49.99-60.8,4.01-4.88-1.15-13.48-7.27-9.42-14.56,9.65-27.25,21.85-39.97,33.74-13.51,12.63-26.8,25.5-39.86,38.59l8.49,8.49c18.79-20.6,37.58-41.2,56.37-61.79,4.4-4.83-1.3-13.29-7.27-9.42-22.73,14.73-42.91,33-59.62,54.32-4.63,5.91,3.11,14.31,8.49,8.49,21.88-23.72,46.21-44.96,71.56-64.88,5.37-4.22-1.58-13.05-7.27-9.42-10.63,6.77-21.27,13.54-31.9,20.31-5.04,3.21-10.07,6.41-15.11,9.62-2.8,1.78-5.6,3.56-8.39,5.35-1.12.71-2.24,1.43-3.36,2.14-1.83,1.17-4.78,1.78-1.48,2.62l4.4,5.79-.03-.34c-.68-7.63-12.68-7.7-12,0h0Z"/>
    <path class="cls-3" d="M269.16,452.21l-2.75,2.55c-5.34,4.95,1.44,12.06,7.27,9.42,23.96-10.82,45.12-27.44,70.23-35.75l-5.84-10.03c-35.26,35.08-70.52,70.16-105.78,105.24,3.14,2.42,6.28,4.85,9.42,7.27,25.91-46.88,62.84-85.97,99.48-124.55l-8.49-8.49c-20.87,23.01-41.74,46.02-62.61,69.02-5.19,5.72,2.77,13.72,8.49,8.49,15.82-14.48,31.64-28.96,47.46-43.44l-9.42-7.27c-20.2,27.63-40.38,55.31-58.75,84.2l10.36,6.06c31.41-53.7,74.6-98.83,117.44-143.44,5.36-5.58-2.87-13.79-8.49-8.49-36.38,34.37-70.3,71.28-101.5,110.42l9.42,7.27c3.39-6.55,8.17-12.05,12.9-17.66,5.2-6.18,10.44-12.32,15.72-18.43,10.56-12.22,21.28-24.3,32.14-36.25l-9.42-7.27c-17.02,22.81-34.01,45.66-49.7,69.41-3.7,5.6,5.06,12.57,9.42,7.27,10.76-13.08,20.91-26.64,30.37-40.68,4.33-6.42-6.07-12.44-10.36-6.06-8.89,13.2-18.38,25.96-28.49,38.25l9.42,7.27c15.69-23.76,32.69-46.6,49.7-69.41,4.08-5.46-4.88-12.27-9.42-7.27-11.3,12.43-22.44,24.99-33.41,37.71-10.02,11.63-22.12,23.32-29.23,37.05-2.95,5.69,4.96,12.87,9.42,7.27,31.19-39.15,65.11-76.05,101.5-110.42l-8.49-8.49c-43.53,45.33-87.4,91.3-119.32,145.87-3.92,6.7,6.23,12.55,10.36,6.06,18.37-28.9,38.55-56.57,58.75-84.2,4.18-5.72-4.62-11.66-9.42-7.27-15.82,14.48-31.64,28.96-47.46,43.44l8.49,8.49c20.87-23.01,41.74-46.02,62.61-69.02,5.17-5.7-3.14-14.12-8.49-8.49-37.31,39.29-74.97,79.23-101.35,126.98-3.26,5.91,4.51,12.16,9.42,7.27,35.26-35.08,70.52-70.16,105.78-105.24,4.11-4.09-.03-11.95-5.84-10.03-26.16,8.66-48.15,25.69-73.09,36.96l7.27,9.42,2.75-2.55c5.68-5.26-2.83-13.73-8.49-8.49h0Z"/>
    <path class="cls-3" d="M317.85,431.16c-17.48,21.68-34.95,43.35-52.43,65.03-4.75,5.89,2.8,13.98,8.49,8.49,14.08-13.63,28.17-27.26,42.25-40.89,6.89-6.67,13.79-13.34,20.68-20.01,6.22-6.02,12.23-13.17,19.99-17.21-2.74-2.74-5.47-5.47-8.21-8.21-7.63,11.08-16.85,20.87-26.02,30.67-9.16,9.79-18.1,19.79-26.74,30.05-17.52,20.81-34,42.47-50.16,64.34l10.36,6.06c13.82-19.89,29.8-38.27,45.15-56.99s31.14-37.98,46.71-56.97l-9.42-7.27c-16.49,21.49-32.97,43.01-48.47,65.23,3.45,2.02,6.91,4.04,10.36,6.06,19.54-28.33,39.82-56.15,60.89-83.36,4.59-5.93-2.78-14.05-8.49-8.49-22.98,22.43-44.96,45.86-65.87,70.22l9.42,7.27c17-24.12,36.2-46.57,57.29-67.22h-8.49l.62.65-1.76-4.24c-.02.57-2.35,3.52-2.6,3.93-.67,1.07-1.35,2.13-2.04,3.19-1.9,2.91-3.85,5.77-5.84,8.62-3.85,5.51-7.82,10.95-11.76,16.4-8.17,11.3-16.35,22.6-24.52,33.9l10.97,4.62c1.77-5.68,4.13-10.97,7.11-16.12-3.45-2.02-6.91-4.04-10.36-6.06-3.3,7.31-7.27,14.31-12.08,20.74-2.44,3.26-5.11,6.34-7.93,9.27-2.52,2.63-5.23,6.13-9.17,5.81l1.6,11.79c1.16-.33,2.33-.65,3.49-.98l-7.6-5.79c.01-1.24-1.81,2.05-2.25,2.65-1.16,1.56-2.33,3.12-3.49,4.69-2.52,3.38-5.04,6.77-7.56,10.15-4.84,6.51-9.69,13.02-14.53,19.52-4.25,5.71,4.62,11.59,9.42,7.27,21.59-19.41,43.19-38.82,64.78-58.23l-8.49-8.49c-18.91,19.78-36.89,40.47-52.34,63.11-3.79,5.55,5.19,12.65,9.42,7.27,24.84-31.57,50.99-62.08,78.38-91.45l-9.42-7.27c-2.51,3.43-5.02,6.86-7.54,10.29-4.57,6.24,5.84,12.23,10.36,6.06,2.51-3.43,5.02-6.86,7.54-10.29,4.04-5.52-4.83-12.2-9.42-7.27-27.4,29.37-53.55,59.88-78.38,91.45l9.42,7.27c14.87-21.79,32.25-41.63,50.46-60.68,5.37-5.62-2.76-13.63-8.49-8.49-21.59,19.41-43.19,38.82-64.78,58.23l9.42,7.27c5.43-7.29,10.85-14.58,16.28-21.87,2.71-3.64,5.43-7.29,8.14-10.93,2.46-3.3,5-5.97,5.05-10.27.04-3.89-3.87-6.83-7.6-5.79-1.16.33-2.33.65-3.49.98-6.78,1.91-4.97,11.25,1.6,11.79,10.02.81,17.65-8.77,23.36-15.75,6.52-7.97,11.95-16.63,16.19-26.02,3.11-6.89-6.41-12.88-10.36-6.06-3.48,6.01-6.25,12.36-8.32,18.99s7.2,9.83,10.97,4.62c9.71-13.43,19.43-26.85,29.13-40.28,4.43-6.14,8.86-12.29,12.99-18.64,3.43-5.27,9.46-12.23,3.91-18.06-2.25-2.36-6.21-2.23-8.49,0-21.82,21.36-41.57,44.69-59.16,69.65-3.9,5.53,4.99,12.44,9.42,7.27,20.92-24.37,42.89-47.79,65.87-70.22l-8.49-8.49c-21.7,28.02-42.65,56.61-62.77,85.79-4.4,6.38,5.98,12.34,10.36,6.06,15.5-22.22,31.98-43.74,48.47-65.23,4.11-5.36-5.11-12.54-9.42-7.27-15.98,19.5-31.97,38.99-47.95,58.49-15.58,19-31.74,37.7-45.78,57.9-4.46,6.41,5.85,12.16,10.36,6.06,16.3-22.06,32.94-43.88,50.72-64.79,17.17-20.19,37.14-38.39,52.2-60.27,3.62-5.26-3.27-10.78-8.21-8.21-7.59,3.95-13.49,10.44-19.57,16.33-7.36,7.13-14.73,14.25-22.09,21.38-14.56,14.09-29.12,28.19-43.69,42.28l8.49,8.49c17.48-21.68,34.95-43.35,52.43-65.03,4.8-5.96-3.64-14.5-8.49-8.49h0Z"/>
    <path class="cls-3" d="M340.38,454.07c-8.58,10.1-16.79,20.52-24.63,31.21-4.23,5.77,4.6,11.53,9.42,7.27,12.03-10.61,24.38-20.85,37.1-30.63,5.99-4.6.25-14.97-6.06-10.36-28.08,20.51-53.47,44.33-75.49,71.25l8.49,8.49c15.58-19.27,33.82-36.06,51.1-53.74,15.93-16.3,31.22-33.63,51-45.41l-7.27-9.42c-13.01,11.62-26.02,23.24-39.03,34.86l8.49,8.49c13.28-15.6,27.02-30.79,41.21-45.57,3.5-3.64,1.08-10.38-4.24-10.24-8.35.21-15.37,7.02-21.83,11.62-7.21,5.14-14.37,10.36-21.46,15.66-14.6,10.91-28.95,22.14-43.06,33.68l9.42,7.27c8.77-18.12,23.29-33.68,36.34-48.83,13.36-15.52,27.32-30.51,41.8-44.99,5.47-5.47-2.91-13.83-8.49-8.49-17.75,17.01-33.65,35.82-47.59,56.07-3.53,5.12,3.27,11.05,8.21,8.21,13.46-7.73,25.45-17.71,37.62-27.28,13.1-10.29,26.19-20.58,39.29-30.87h-8.49l.68.68-1.76-4.24c.11,1.55-5.42,6.99-6.44,8.22-2.5,3.04-5.06,6.03-7.69,8.95-5.26,5.86-10.78,11.47-16.5,16.88l9.42,7.27c6.62-8.85,13.23-17.69,19.85-26.54,4.33-5.8-4.59-11.37-9.42-7.27-16.99,14.39-33.98,28.78-50.98,43.17-5.9,5,2.62,13.45,8.49,8.49,16.99-14.39,33.98-28.78,50.98-43.17l-9.42-7.27c-6.62,8.85-13.23,17.69-19.85,26.54-4.2,5.62,4.66,11.77,9.42,7.27,7.92-7.49,15.44-15.38,22.46-23.73,4.72-5.62,16.76-16.22,9.26-23.73-2.49-2.49-5.93-2.01-8.49,0-12.57,9.88-25.15,19.75-37.72,29.63-11.9,9.35-23.6,19.08-36.77,26.63,2.74,2.74,5.47,5.47,8.21,8.21,13.37-19.42,28.69-37.33,45.72-53.64l-8.49-8.49c-14.92,14.92-29.29,30.38-43.02,46.4s-28.07,31.39-37,49.84c-3.04,6.28,4.12,11.61,9.42,7.27,12.83-10.49,25.85-20.73,39.11-30.67,6.58-4.93,13.21-9.8,19.89-14.59,3.08-2.21,6.18-4.41,9.28-6.59,2.55-1.79,6.32-5.51,9.57-5.6l-4.24-10.24c-14.19,14.78-27.93,29.97-41.21,45.57-4.99,5.86,2.67,13.68,8.49,8.49,13.01-11.62,26.02-23.24,39.03-34.86,5.12-4.58-1.47-12.87-7.27-9.42-20.18,12.02-36.02,29.38-52.24,46.06-17.64,18.13-36.35,35.26-52.29,54.97-4.8,5.94,3.58,14.48,8.49,8.49,21.33-26.09,45.83-49.5,73.06-69.38-2.02-3.45-4.04-6.91-6.06-10.36-13.53,10.41-26.73,21.22-39.53,32.51l9.42,7.27c7.24-9.87,14.83-19.46,22.75-28.78,4.97-5.85-3.48-14.38-8.49-8.49h0Z"/>
    <path class="cls-3" d="M348.02,349.06c.5-5.27,2.64-12.77-3.51-15.51-5.03-2.24-11.53,1.78-15.7,4.29-10.54,6.34-19.28,15.14-25.98,25.4-4.02,6.16,4.48,11.19,9.42,7.27,11.01-8.71,22.38-16.93,34.04-24.72l-8.81-3.59.2.79c-.15,7.72,11.85,7.73,12,0,.03-1.47-.1-2.6-.63-3.98-1.28-3.38-5.32-5.92-8.81-3.59-12.52,8.37-24.66,17.26-36.47,26.6,3.14,2.42,6.28,4.85,9.42,7.27,3.68-5.63,8.07-10.64,13.18-15.02,2.45-2.1,5.07-3.96,7.81-5.66,1.36-.84,2.73-1.67,4.16-2.37.71-.39,1.45-.72,2.22-.98,2.71-.51,2.03-1-2.05-1.46l-1.76-4.24c.24,3.09-.44,6.42-.74,9.5-.73,7.68,11.27,7.63,12,0h0Z"/>
    <path class="cls-3" d="M347.64,338.57c-3.65-7.25-11.76-9.03-18.8-6.04-6.41,2.72-1.75,12.58,4.62,10.97,13.86-3.5,27.97-5.42,42.22-6.4,13.41-.93,26.92-1.43,39.91-5.21,7.4-2.15,4.25-13.73-3.19-11.57-13.21,3.84-26.88,3.99-40.49,5.06-14.03,1.1-27.99,3.11-41.64,6.56l4.62,10.97c1.18-.5,2.02,1.01,2.39,1.73,3.48,6.9,13.83.83,10.36-6.06h0Z"/>
    <path class="cls-3" d="M414.09,318.82c-14.57-.94-29-3.1-43.54-4.2-11.28-.85-24.22,3.31-27.07,15.61-.95,4.1,1.84,7.18,5.79,7.6,3.45.36,6.91.73,10.36,1.09,7.67.81,7.61-11.2,0-12-3.45-.36-6.91-.73-10.36-1.09l5.79,7.6c2.37-10.22,17.55-6.61,24.81-5.72,11.37,1.39,22.79,2.38,34.22,3.11,7.71.5,7.68-11.51,0-12h0Z"/>
    <path class="cls-3" d="M351.79,361.3c-7.19-.49-10.61,5.8-11.36,12.06-.93,7.78-1.62,15.6-2.43,23.4h12c-.81-6.14-1.3-12.28-1.48-18.47-.2-6.89-9.62-7.98-11.79-1.6-9.51,28.03-14.93,57.26-16.28,86.83-.27,5.87,8.47,8.28,11.18,3.03,6.06-11.72,9.26-24.91,13.22-37.44,4.28-13.55,8.57-27.11,12.85-40.66l-11.79-1.6c.2,9.81-1.88,19.19-4.1,28.68l11.79,1.6c1.38-16.31,2.76-32.62,4.14-48.93.57-6.73-10.33-8.17-11.79-1.6-5.21,23.57-8.07,47.6-8.5,71.73-.12,6.56,10.84,8.43,11.79,1.6,2.29-16.59,4.58-33.17,6.86-49.76l-11.79-1.6c.8,12.05,1.2,24.12,1.21,36.2,0,6.82,9.86,8.08,11.79,1.6,10.09-33.96,18.19-68.46,26.25-102.94l-11.79-1.6c-3.76,31.45-6.01,63.05-6.75,94.71-.18,7.74,11.71,7.7,12,0,.39-10.24-1.34-20.35-5.26-29.82-2.27-5.5-9.4-5.84-11.57,0-4.73,12.74-8,25.92-11.2,39.11l11.79,1.6c-.91-29.19.46-58.38,4.11-87.36h-12c1,28.85,2,57.69,2.99,86.54.22,6.42,10.68,8.57,11.79,1.6,1.34-8.44,2.68-16.89,4.02-25.33h-11.57c2.83,9.02,5.27,18.14,7.3,27.37.64,2.89,4.49,5.39,7.38,4.19,7.83-3.25,8.39-12.39,9.97-19.82,1.87-8.74,3.19-17.57,4.13-26.45h-12c.18,8.33.36,16.66.55,24.99.17,7.83,11.34,7.6,12,0l5.83-67.37h-12c-1.2,15.34-.95,30.68.74,45.98.71,6.4,9.8,8.54,11.79,1.6,3.68-12.84,6.53-25.86,8.56-39.06l-11.79-1.6c1.52,12.97,3.05,25.94,4.57,38.9.64,5.45,8.03,8.74,11.18,3.03,3.95-7.16,4.83-14.92,5.38-22.96.47-6.77-10.22-8.13-11.79-1.6-2.82,11.74-5.64,23.48-8.46,35.21l11.57,3.19c5.11-24.67,10.22-49.34,15.33-74.01l-11.79-1.6c-.56,23.78-1.11,47.55-1.67,71.33h12c-1.38-12.57-2.82-25.15-6.06-37.41-1.8-6.83-11.28-4.93-11.79,1.6-1.81,23.59-3.62,47.17-5.43,70.76l10.24-4.24c-4.68-4.02-8.66-8.48-12-13.67-2.82-4.39-9.4-3.57-10.97,1.43-1.43,4.57-2.11,9.22-2.1,14.01h12c-.34-12.66-.68-25.32-1.01-37.97-.21-7.71-11.89-7.74-12,0-.09,6.4-.19,12.8-.28,19.19h12c-.89-14.94-3.88-29.56-9.17-43.57-1.93-5.1-10.16-6.27-11.57,0-2.33,10.35-2.25,20.75.31,31.06,1.56,6.28,9.52,5.07,11.57,0,2.25-5.55,4.5-11.1,6.75-16.65l-4.19,4.19,1.1-.17-4.62-.6c-.87-.55-.04.38.11,1.12.29,1.42.85,2.84,1.27,4.23.76,2.54,1.53,5.07,2.29,7.61,1.57,5.21,10.6,6.19,11.57,0,.76-4.86,1.22-9.69,1.18-14.61l-11.79,1.6c2.29,7.75,4.58,15.49,6.87,23.24,1.86,6.29,12.15,5.37,11.79-1.6-.55-10.54-1.83-21.01-3.79-31.38-1.06-5.63-10.67-5.82-11.57,0s-1.73,11.24-2.6,16.86c3.66-.48,7.31-.96,10.97-1.43-3.78-6.39-5.94-13.49-8.38-20.46-2.64-7.53-5.28-15.05-7.92-22.58-2.19-6.25-11.65-5.42-11.79,1.6-.26,12.93.74,25.75,2.8,38.52,1.07,6.61,12.43,5.14,11.79-1.6l-.05-.54-1.76,4.24-1.64.96-4.62-.6c.71.38,2.07,3,2.46,3.54,1.07,1.51,2.14,3.02,3.21,4.53,2.14,3.02,4.28,6.03,6.42,9.05l-.6-4.62c-.99,3.81-1.98,7.62-2.97,11.43h11.57c-.81-2.94-2.01-5.63-3.78-8.12s-5.25-3.98-8.21-2.15c-7.05,4.36-13.62,9.56-19.27,15.64-2.1,2.26-4.3,6.59-7.47,6.57-3.86-.02-8.98-3.78-12.09-5.78-.48,3.66-.96,7.31-1.43,10.97,7.2-1.67,14.44-1.77,21.68-.25l-2.65-10.03c-19.53,19.53-32.57,45-36.65,72.35-.72,4.81,3.93,9.8,8.81,6.78,7.63-4.72,14.71-10.2,21.2-16.4,2.86-2.73,2-7.44-1.21-9.42-2.19-1.35-4.45-1.99-7.03-1.98-1,0-1.98.2-2.97.27-1.73.12-2.29-.45-1.3.87-4.59-6.09-15.01-.12-10.36,6.06,1.9,2.52,3.77,4.12,6.95,4.82,2.3.51,6.8-.82,8.66.33l-1.21-9.42c-5.78,5.51-11.99,10.32-18.77,14.52l8.81,6.78c3.79-25.43,15.36-48.85,33.56-67.05,3.04-3.04,1.85-9.08-2.65-10.03-9.4-1.97-18.7-1.91-28.06.25-5.27,1.22-5.57,8.3-1.43,10.97,7.78,5.01,19.58,11.46,27.9,4.24,3.56-3.09,6.28-7.2,9.71-10.47,4.08-3.9,8.54-7.23,13.33-10.2l-8.21-2.15c1.21,1.7,2.02,3.24,2.57,5.26,1.55,5.65,10.07,5.77,11.57,0,1.17-4.53,4.55-11.54,2.36-16.05-2.31-4.77-6.55-9.24-9.63-13.58-2.32-3.28-4.58-7.96-9-8.56-4.01-.54-8.15,2.79-7.75,7.01l11.79-1.6c-1.88-11.69-2.61-23.49-2.37-35.33l-11.79,1.6c2.85,8.13,5.7,16.26,8.55,24.39,2.57,7.34,4.98,14.8,8.96,21.52,2.4,4.05,10.14,3.9,10.97-1.43.87-5.62,1.73-11.24,2.6-16.86h-11.57c1.76,9.33,2.86,18.7,3.36,28.19l11.79-1.6c-2.29-7.75-4.58-15.49-6.87-23.24-1.89-6.4-11.84-5.3-11.79,1.6.03,3.84-.15,7.63-.75,11.42h11.57c-1.87-6.22-3.23-19.73-11.42-20.84-4.77-.64-6.83,2.4-8.43,6.31-2.02,4.93-4,9.86-6,14.8h11.57c-2.04-8.2-2.17-16.43-.31-24.68h-11.57c4.91,13.01,7.92,26.49,8.74,40.38.45,7.66,11.89,7.79,12,0,.09-6.4.19-12.8.28-19.19h-12c.34,12.66.68,25.32,1.01,37.97.21,7.7,12.02,7.75,12,0,0-3.78.54-7.21,1.67-10.82-3.66.48-7.31.96-10.97,1.43,3.87,6.03,8.44,11.43,13.87,16.1,4.06,3.5,9.83,1.07,10.24-4.24,1.81-23.59,3.62-47.17,5.43-70.76l-11.79,1.6c2.97,11.23,4.36,22.69,5.63,34.22.83,7.51,11.82,7.9,12,0,.56-23.78,1.11-47.55,1.67-71.33.16-6.64-10.39-8.31-11.79-1.6-5.11,24.67-10.22,49.34-15.33,74.01-1.55,7.51,9.76,10.75,11.57,3.19,2.82-11.74,5.64-23.48,8.46-35.21l-11.79-1.6c-.4,5.85-.86,11.68-3.75,16.9,3.73,1.01,7.45,2.02,11.18,3.03-1.52-12.97-3.05-25.94-4.57-38.9-.35-3-2.02-5.46-5.2-5.89-2.66-.36-6.13,1.35-6.58,4.3-2.03,13.2-4.88,26.22-8.56,39.06l11.79,1.6c-1.69-15.29-1.94-30.64-.74-45.98.6-7.72-11.34-7.63-12,0-1.94,22.46-3.88,44.91-5.83,67.37h12c-.18-8.33-.36-16.66-.55-24.99-.17-7.88-11.2-7.53-12,0-.67,6.27-1.58,12.5-2.77,18.7-.53,2.75-1.11,5.48-1.74,8.21-.35,1.51-.71,3.03-1.09,4.53-.32,1.29-2.22,4.31.31,3.26l7.38,4.19c-2.04-9.23-4.47-18.35-7.3-27.37-1.62-5.16-10.58-6.23-11.57,0-1.34,8.44-2.68,16.89-4.02,25.33l11.79,1.6c-1-28.85-2-57.69-2.99-86.54-.27-7.93-11.06-7.47-12,0-3.65,28.98-5.02,58.17-4.11,87.36.21,6.58,10.14,8.38,11.79,1.6,3.2-13.19,6.47-26.37,11.2-39.11h-11.57c3.56,8.61,5.18,17.32,4.83,26.63h12c.74-31.66,2.99-63.26,6.75-94.71.81-6.74-10.27-8.1-11.79-1.6-8.06,34.49-16.17,68.98-26.25,102.94l11.79,1.6c0-12.08-.41-24.15-1.21-36.2-.42-6.27-10.8-8.7-11.79-1.6-2.29,16.59-4.58,33.17-6.86,49.76l11.79,1.6c.41-23.09,3.09-45.98,8.07-68.54l-11.79-1.6c-1.38,16.31-2.76,32.62-4.14,48.93-.57,6.76,10.26,8.13,11.79,1.6,2.46-10.48,4.75-21.05,4.53-31.87-.14-6.83-9.74-8.06-11.79-1.6-4.09,12.94-8.18,25.87-12.27,38.81-3.82,12.09-6.75,25.11-12.59,36.42,3.73,1.01,7.45,2.02,11.18,3.03,1.3-28.53,6.68-56.59,15.85-83.64l-11.79-1.6c.18,6.19.67,12.33,1.48,18.47,1,7.6,11.19,7.82,12,0,.22-2.1,2.8-23.39,1.79-23.45,7.71.52,7.68-11.48,0-12h0Z"/>
    <path class="cls-3" d="M340.82,335.37c1.78,6,4.44,11.68,8.04,16.8,1.86,2.65,5.24,3.89,8.21,2.15,2.62-1.53,4.03-5.55,2.15-8.21-3.04-4.32-5.33-8.87-6.83-13.93-2.19-7.39-13.77-4.24-11.57,3.19h0Z"/>
    <path class="cls-3" d="M363.86,334.05c-1.32,4.34-2.12,8.72-2.65,13.22-.38,3.22,3.03,6,6,6,3.56,0,5.62-2.77,6-6,.4-3.4,1.22-6.76,2.22-10.03,2.25-7.4-9.33-10.57-11.57-3.19h0Z"/>
    <path class="cls-3" d="M376.09,340.09c2.26,4.89,2.79,9.99,2.26,15.29s6.89,7.85,10.24,4.24c6.65-7.15,7.65-16.45,7.84-25.81l-7.6,5.79c3.08,1.19,5.34,3.31,7.05,6.08l.94-7.27-.63.06,7.38,7.38c.84-2,1.8-6.61,3.4-8.02l-4.24,1.76.83-.02-4.24-1.76c1.08.87-1.03,7.72-1.42,8.94-2.07,6.34,8.28,10.93,10.97,4.62,3.81-8.95,8.36-17.49,13.66-25.65l-10.97-1.43c2.62,9.59,3.16,19.23,2.35,29.11-.81,9.84.14,19.13.76,28.96,1.27,20.17.38,40.41,1.76,60.58.52,7.66,12.53,7.72,12,0-1.42-20.82-.43-41.72-1.89-62.53-.36-5.19-1.13-10.37-1.27-15.56s.63-10.09.91-15.15c.52-9.62-.51-19.3-3.05-28.59-1.41-5.16-8.21-5.67-10.97-1.43-5.3,8.16-9.85,16.7-13.66,25.65l10.97,4.62c2.04-6.23,4.26-18.55-3.59-21.86-8.67-3.65-11.56,9.09-13.87,14.58-1.89,4.48,3.43,8.33,7.38,7.38,2.38-.57,4.05-1.65,5.92-3.15,2-1.61,2.22-5.19.94-7.27-3.44-5.58-8.15-9.25-14.22-11.6-3.77-1.46-7.52,2.23-7.6,5.79-.12,5.9-.06,12.74-4.33,17.33l10.24,4.24c.76-7.51-.75-14.54-3.9-21.35-3.24-7-13.58-.91-10.36,6.06h0Z"/>
    <path class="cls-3" d="M405.93,409.99c2.74,40.78,10.98,81.01,24.71,119.51,2.19,6.13,11.83,5.51,11.79-1.6-.22-33.93,7.66-69.42-8.97-100.96-2.3-4.36-10.02-3.66-10.97,1.43-2.99,16.14-4.36,32.48-3.92,48.9.21,7.89,11.16,7.52,12,0,2.4-21.51,4.54-43.05,6.42-64.61h-12c-.12,9.83,1.22,19.26,9.83,25.21,2.96,2.04,8.22.1,8.81-3.59.7-4.34.7-8.13.02-12.47-1.19-7.61-12.75-4.38-11.57,3.19.31,2.01.3,4.08-.02,6.09l8.81-3.59c-4.52-3.12-3.95-10.08-3.89-14.84.1-7.83-11.34-7.58-12,0-1.88,21.56-4.02,43.1-6.42,64.61h12c-.41-15.34.7-30.61,3.5-45.71-3.66.48-7.31.96-10.97,1.43,15.35,29.13,7.12,63.59,7.33,94.9l11.79-1.6c-13.37-37.49-21.61-76.59-24.28-116.32-.51-7.66-12.52-7.72-12,0h0Z"/>
    <path class="cls-3" d="M432.51,368.48c5.57,1.24,11.06,2.72,16.49,4.45v-11.57c-2.58.95-4.73.36-7.31-.32-4.77-1.27-8.11,2.98-7.38,7.38,4.96,29.97,10.51,59.84,16.64,89.6l11.57-3.19c-3.71-11.2-5.39-22.75-6.03-34.51-.3-5.54-.4-11.09-.45-16.64-.03-3.8-1.51-11.07,1.84-13.7,6.07-4.77-2.48-13.21-8.49-8.49-4.33,3.41-5.28,8.92-5.38,14.14-.13,6.98.03,14.02.31,20.99.56,14.01,2.21,28.04,6.63,41.39,2.43,7.35,13.13,4.38,11.57-3.19-6.13-29.76-11.68-59.63-16.64-89.6l-7.38,7.38c4.56,1.21,9.15,1.99,13.69.32,5.48-2.02,5.89-9.7,0-11.57-5.44-1.73-10.93-3.21-16.49-4.45-7.52-1.68-10.74,9.89-3.19,11.57h0Z"/>
    <path class="cls-3" d="M436.43,369.04c1.02,7.55,2.04,15.11,3.05,22.66.51,3.82,5.88,5.48,8.81,3.59,4.28-2.76,7-7.11,7.1-12.29.04-2.22-.5-4.63-1.56-6.59-.57-1.05-1.5-2.52-2.39-3.33l-.71-.97c-2.73,3.07-2.88,4.58-.45,4.52v-12c-3.56.46-6.49.16-9.67-1.6-4.97-2.75-9.55,1.77-8.81,6.78,2.51,17.05,4.4,35.21,1.98,52.37-1.16,8.25-.72,16.1-.14,24.39s.46,16.74,2.08,24.79c.96,4.8,6.86,5.31,10.03,2.65,6.97-5.84,6.67-17.23,6.47-25.48-.22-9.19-.4-18.54-6.66-25.84-3.4-3.96-10.41-.76-10.24,4.24.41,12.3,1.99,24.52,4.7,36.53,1.7,7.53,13.28,4.34,11.57-3.19-2.49-10.99-3.9-22.07-4.28-33.34l-10.24,4.24c3.72,4.34,3.01,12.03,3.14,17.35.12,4.84,1.2,13.51-2.95,16.99l10.03,2.65c-1.64-8.15-1.34-17.12-1.92-25.42-.31-4.46-.81-8.99-.49-13.46.25-3.58.99-7.12,1.35-10.7,1.72-17.17-.35-34.98-2.86-51.98l-8.81,6.78c4.89,2.7,10.16,3.96,15.73,3.24,7.7-1,7.71-11,0-12-5.44-.71-11.25,2.17-11.44,8.28-.09,2.98,1.6,5.3,3.25,7.57,1.05,1.44,2.19,3.13.15,4.45l8.81,3.59c-1.02-7.55-2.04-15.11-3.05-22.66-.44-3.24-4.55-4.94-7.38-4.19-3.48.92-4.62,4.18-4.19,7.38h0Z"/>
    <path class="cls-3" d="M426.46,391.12c3.06,21.2,5.48,42.57,5.32,64.02-.04,5.07-.71,10.24-.52,15.28.13,3.53,1.62,7.25,5.07,8.7,3.73,1.57,7.43-.28,9.57-3.43,3.05-4.51,5.54-9.52,8.26-14.24-3.73-1.01-7.45-2.02-11.18-3.03,1.55,14.51,1.71,29.06.47,43.6-.66,7.69,11.35,7.65,12,0,1.24-14.54,1.08-29.09-.47-43.6-.6-5.57-7.97-8.6-11.18-3.03-1.49,2.58-2.98,5.17-4.47,7.75-.66,1.15-1.32,2.3-1.99,3.45-.33.57-.66,1.15-.99,1.72-1.15,1.66-.39,1.43,2.3-.68l4.24,1.76c.86.75.55-2.64.59-3.46.08-1.64.15-3.27.2-4.91.11-3.6.14-7.2.11-10.8-.07-6.88-.39-13.76-.9-20.62-1.03-13.96-2.84-27.84-4.84-41.69-1.1-7.61-12.66-4.38-11.57,3.19h0Z"/>
    <path class="cls-3" d="M451.18,485.47c-.19-4.08-1.12-7.52-3.15-11.08-2.84-4.97-11.58-3.04-11.18,3.03,1.51,22.94,3.02,45.88,4.52,68.82.42,6.37,10.32,8.6,11.79,1.6,3.38-16.17,2.67-32.51,1.63-48.88-.49-7.67-12.49-7.72-12,0,.97,15.23,1.95,30.64-1.2,45.69l11.79,1.6c-1.51-22.94-3.02-45.88-4.52-68.82l-11.18,3.03c.99,1.73,1.42,3.01,1.51,5.02.35,7.69,12.35,7.73,12,0h0Z"/>
    <path class="cls-3" d="M439.71,536.91c-13.57.45-27.4.38-40.12-4.98s-23.88-13.41-35.74-19.96c-10.38-5.73-22.65-15.31-35.16-11.78-5.54,1.56-10.16,5.02-15.31,7.43-6.05,2.82-12.77,3.36-18.64,6.73l7.27,9.42c14.06-17.16,31.5-30.88,48.93-44.43l-9.42-7.27c-6.83,9.59-14.18,18.77-22,27.57l9.42,1.21-.38-.75.6,4.62.19-.82c1.79-7.51-9.78-10.71-11.57-3.19-.57,2.39-.3,4.04.79,6.19,1.68,3.33,6.95,3.99,9.42,1.21,8.5-9.56,16.46-19.58,23.88-30,4.31-6.05-4.55-11.06-9.42-7.27-17.43,13.55-34.87,27.27-48.93,44.43-4.13,5.03,1,13.02,7.27,9.42,5.3-3.04,11.67-3.55,17.24-6.06,4.82-2.18,9.33-5.95,14.57-7.05,5.9-1.24,11.99,3.57,16.93,6.24,6.07,3.28,12.12,6.6,18.1,10.05,10.74,6.19,21.14,13.3,33,17.22,12.55,4.14,26.02,4.26,39.08,3.82,7.7-.26,7.74-12.26,0-12h0Z"/>
    <path class="cls-3" d="M274.12,547.96c5.79,9.87,20.36,9.01,30.28,9.47,12.99.6,25.77.56,38.63-1.61s24.36-5.63,36.74-7.39c13.78-1.95,27.77-.88,41.58.15v-12c-16.17-.33-32.34-.67-48.51-1-7.73-.16-7.72,11.84,0,12,16.17.33,32.34.67,48.51,1,7.8.16,7.62-11.43,0-12-12.17-.91-24.42-1.83-36.61-.72-11.47,1.04-22.64,3.78-33.87,6.21s-22.43,3.9-34.01,3.77c-6.03-.07-12.06-.35-18.07-.69-3.52-.2-12.23.27-14.3-3.25-3.9-6.66-14.28-.63-10.36,6.06h0Z"/>
    <path class="cls-3" d="M259,546.91c41.1,4.64,82.35-1.56,123.53.52,7.72.39,7.7-11.61,0-12-41.18-2.07-82.43,4.12-123.53-.52-7.66-.86-7.6,11.14,0,12h0Z"/>
    <path class="cls-3" d="M286.4,532.1c9.24,3,19.03,3.25,28.67,3.56,9.81.31,19.62.39,29.43.5,20.26.21,40.52.57,60.66,3,7.65.93,7.58-11.08,0-12-19.48-2.36-39.09-2.77-58.69-2.98-9.81-.11-19.62-.18-29.43-.46-9.24-.27-18.56-.31-27.44-3.19-7.36-2.39-10.52,9.19-3.19,11.57h0Z"/>
    <path class="cls-3" d="M285.31,543.24c16.64-.35,33.28-.59,49.93-.7,8.16-.05,16.32-.08,24.48-.07,7.53,0,15.8-.9,23.1,1.28s10.58-9.36,3.19-11.57c-7.22-2.16-14.92-1.69-22.37-1.71-8.81-.02-17.62,0-26.43.06-17.3.1-34.59.35-51.89.71-7.71.16-7.74,12.16,0,12h0Z"/>
    <path class="cls-3" d="M306.83,516.77c22.95,10.51,48.02,10.14,72.73,9.09,7.68-.33,7.76-12.02,0-12-21.08.06-42.16.12-63.24.18l1.6,11.79c9.79-2.49,19.67-4.1,29.76-4.75,7.67-.5,7.72-12.5,0-12-11.13.72-22.14,2.42-32.95,5.18-6.57,1.67-5.17,11.81,1.6,11.79,21.08-.06,42.16-.12,63.24-.18v-12c-22.27.95-45.9,2.06-66.67-7.45-6.97-3.19-13.08,7.15-6.06,10.36h0Z"/>
    <path class="cls-3" d="M345.84,490.55l-.91-.03,4.24,1.76-.7-.58.94,7.27c9.2-21.15,24.09-38.67,39.06-55.93l-10.24-4.24c-.08.82-3.31,3.59-3.96,4.32-1.56,1.76-3.13,3.52-4.7,5.27-3.15,3.51-6.31,7.01-9.46,10.51-6.31,7.01-12.6,14.03-18.7,21.21-12.11,14.25-23.51,29.14-32.9,45.33-3.38,5.83,4.63,12.25,9.42,7.27,20.04-20.84,41.07-40.7,63.07-59.46,10.7-9.12,21.4-17,28.26-29.58,7.24-13.27,13.53-27.1,19.7-40.89,2.6-5.8-4.38-12.6-9.42-7.27-22.47,23.76-39.95,51.51-51.89,81.93-2.48,6.31,7.93,10.66,10.97,4.62,11.51-22.9,24.84-44.8,39.87-65.55l-10.36-6.06c-4.82,9.13-10.6,17.67-16.21,26.33s-10.22,17.21-15.94,25.4c-11.98,17.14-31.07,29.44-47.77,41.56,2.74,2.74,5.47,5.47,8.21,8.21,12.6-17.74,26.79-34.24,42.34-49.47l-8.49-8.49c-6.79,7.06-12.91,14.71-18.34,22.86-3.81,5.71,4.72,12.11,9.42,7.27,25.42-26.2,52.6-50.61,81.36-73.09l-8.49-8.49c-27.23,33.5-54.95,66.77-78.66,102.91,3.45,2.02,6.91,4.04,10.36,6.06,10.87-18.13,22.54-35.75,35-52.83,4-5.48-4.97-12.4-9.42-7.27-11.44,13.18-22.15,26.96-32.12,41.29l10.36,6.06c11.37-16.46,22.75-32.92,34.12-49.38,4.03-5.83-4.59-11.66-9.42-7.27-19.73,17.9-33.17,41.11-46.16,64.05-3.89,6.87,5.89,12.16,10.36,6.06,7.57-10.33,15.15-20.67,22.72-31-3.73-1.01-7.45-2.02-11.18-3.03-.17,3.44-.86,6.6-1.96,9.86-1.85,5.47,6.24,10.52,10.03,5.84.8-.99,1.6-1.97,2.39-2.96,4.81-5.95-3.63-14.49-8.49-8.49-.8.99-1.6,1.97-2.39,2.96l10.03,5.84c1.44-4.25,2.17-8.57,2.39-13.05.32-6.5-7.97-7.41-11.18-3.03-7.57,10.33-15.15,20.67-22.72,31l10.36,6.06c12.52-22.09,25.28-44.38,44.29-61.62l-9.42-7.27c-11.37,16.46-22.75,32.92-34.12,49.38-4.4,6.37,5.98,12.36,10.36,6.06,9.38-13.5,19.46-26.45,30.24-38.86l-9.42-7.27c-12.46,17.08-24.14,34.69-35,52.83-4,6.67,6.15,12.48,10.36,6.06,23.16-35.29,50.2-67.77,76.79-100.48,4.93-6.07-2.41-13.23-8.49-8.49-28.76,22.48-55.94,46.89-81.36,73.09l9.42,7.27c4.88-7.32,10.36-14.09,16.46-20.43,5.36-5.57-2.95-13.9-8.49-8.49-16.28,15.94-31.03,33.32-44.22,51.9-3.4,4.79,3.41,11.69,8.21,8.21,17.52-12.72,36.95-25.51,50.03-43.04,6.13-8.22,10.98-17.31,16.5-25.93,6.05-9.45,12.44-18.68,17.69-28.63,3.67-6.95-5.89-12.23-10.36-6.06-15.04,20.75-28.36,42.66-39.87,65.55l10.97,4.62c11.15-28.42,27.83-54.47,48.81-76.64l-9.42-7.27c-6.06,13.53-12.26,27.07-19.29,40.13-6.71,12.47-17.67,20.09-28.22,29.12-21.49,18.4-42.05,37.86-61.66,58.25l9.42,7.27c10.08-17.38,22.47-33.13,35.63-48.26,6.38-7.34,12.91-14.54,19.42-21.77,3.35-3.72,6.69-7.44,10.01-11.19s5.85-6.56,6.3-11.48-6.95-8.04-10.24-4.24c-15.59,17.98-31.35,36.33-40.93,58.36-.99,2.28-1.24,5.46.94,7.27,1.91,1.59,3.37,2.28,5.85,2.37,7.72.29,7.71-11.71,0-12h0Z"/>
    <path class="cls-3" d="M412.95,456.45c-4.89-3.44-9.62,1.67-12.97,4.8-4.3,4.01-8.24,8.38-11.91,12.97-7.36,9.21-13.67,19.14-19.63,29.3-3.94,6.72,6.13,12.46,10.36,6.06,20.04-30.34,40.76-60.23,62.15-89.64l-10.36-6.06c-9.34,16.95-21.33,32.3-31.51,48.75-10.42,16.84-19.92,34.24-29.41,51.61,3.45,2.02,6.91,4.04,10.36,6.06,9.6-19.18,20.33-37.75,32.17-55.64-3.45-2.02-6.91-4.04-10.36-6.06-5.35,8.49-10.75,16.94-16.19,25.37-4.76,7.37-9.13,16.73-15.68,22.64l10.03,2.65c-.56-3.8-.75-7.61-.74-11.45,0-4.78-5.04-7.16-9.03-5.18-8.47,4.2-7.1,13.33-7.88,21.19-.49,4.93,7.11,8.27,10.24,4.24,15.55-20,31.09-39.99,46.64-59.99l-10.03-5.84c-5.77,14.27-12,28.38-18.87,42.16-6.44,12.91-15.25,23.13-25.25,33.4l8.49,8.49c7.3-8.38,15.35-16.11,24.19-22.85l-8.81-6.78c-2.61,9.33-5.59,18.53-8.92,27.63-2.66,7.26,8.93,10.39,11.57,3.19,3.33-9.1,6.3-18.3,8.92-27.63,1.29-4.6-4.47-10.08-8.81-6.78-9.7,7.39-18.61,15.53-26.62,24.73-5.03,5.77,3.04,14.08,8.49,8.49,10.67-10.95,20.26-22.05,27.13-35.82,7.33-14.71,13.92-29.8,20.08-45.03,2.2-5.43-6.42-10.48-10.03-5.84-15.55,20-31.09,39.99-46.64,59.99l10.24,4.24c.29-2.89-1.12-9.31,1.94-10.83-3.01-1.73-6.02-3.45-9.03-5.18,0,4.93.45,9.76,1.17,14.64s7.05,5.34,10.03,2.65c6.9-6.23,11.5-15.71,16.5-23.44,5.8-8.97,11.54-17.97,17.24-27,4.15-6.57-6.13-12.46-10.36-6.06-11.84,17.89-22.57,36.46-32.17,55.64-3.43,6.86,6.63,12.89,10.36,6.06,9.49-17.38,18.99-34.77,29.41-51.61s22.17-31.8,31.51-48.75c3.8-6.9-5.9-12.2-10.36-6.06-21.38,29.41-42.11,59.3-62.15,89.64,3.45,2.02,6.91,4.04,10.36,6.06,4.7-8.01,9.58-15.93,15.11-23.41,2.69-3.65,5.58-7.14,8.65-10.48,1.52-1.65,3.08-3.25,4.69-4.8.81-.78,1.62-1.54,2.45-2.29.27-.24,2.75-2.1,1.32-1.53l-4.62-.6.49.35c6.33,4.46,12.33-5.94,6.06-10.36h0Z"/>
    <path class="cls-3" d="M394.99,530.04c6.71-12.59,13.33-25.22,19.86-37.91-3.45-2.02-6.91-4.04-10.36-6.06-5.64,11.49-10.66,23.26-15.06,35.27l11.57,3.19c6.69-19.58,17.5-37.59,22.29-57.84,1.8-7.62-8.9-10.34-11.57-3.19-3.49,9.35-5.7,19-6.73,28.92-.5,4.81-.63,9.63-.52,14.46.1,4.05.9,9.83-3.2,12.2,3.01,1.73,6.02,3.45,9.03,5.18-.53-8.8,3.44-16.83,11.08-21.38l-8.81-3.59c.53.58.65,1.2.38,1.84,3.66.48,7.31.96,10.97,1.43-1.36-5.65-2.13-11.29-2.34-17.1-.27-7.78-11.43-7.65-12,0-.36,4.91,1.39,9.46,1.41,14.3.02,4.12-1.98,7.53-3.85,11.08-3.35,6.38-7.83,15.75-3.29,22.63,1.62,2.46,3.98,3.19,6.78,2.76,3.15-.49,4.87-3.39,6.73-5.66,2.47-3.03,4.94-6.05,7.42-9.08l-9.42-7.27c-4.35,9.92-8.29,19.64-9.5,30.49-.73,6.61,8.1,7.18,11.18,3.03,3.97-5.36,7.45-10.98,10.47-16.93h-10.36l-.27-.53c-.22,7.77,11.5,7.65,12,0,.08-1.27-.14-4.15.54-5.25l-3.59,2.76c-2.93-2.16-4.08-2.14-3.44.06-.03.88-.29,1.67-.8,2.39-1.67,3.03-.4,8.23,3.59,8.81s8.24,1.21,12.37,1.82c7.55,1.11,10.81-10.45,3.19-11.57-4.12-.61-8.24-1.21-12.37-1.82l3.59,8.81c3.39-6.12,3.84-16.29-3.56-19.8-9.49-4.5-11.11,7.59-11.51,13.79h12c.06-2.15-.42-3.62-1.37-5.53-1.95-3.95-8.39-3.88-10.36,0-3.02,5.95-6.5,11.57-10.47,16.93,3.73,1.01,7.45,2.02,11.18,3.03.95-8.56,4.44-16.62,7.86-24.43,2.47-5.63-4.71-13.04-9.42-7.27-1.9,2.33-3.8,4.65-5.7,6.98-.76.93-1.52,1.86-2.28,2.79-.57.7-1.14,1.4-1.71,2.09-.99,1.06-.71.99.85-.22l6.78,2.76c-1.47-2.22,1.92-7.93,2.89-9.78,1.66-3.15,3.45-6.29,4.58-9.68,2.6-7.77-.69-14.72-.11-22.49h-12c.24,6.86,1.16,13.62,2.76,20.29,1.16,4.84,8.66,6.07,10.97,1.43,1.79-3.6,2.41-7.28.82-11.09-1.45-3.48-5.14-5.78-8.81-3.59-11.07,6.6-17.8,18.82-17.02,31.75.27,4.48,4.91,7.56,9.03,5.18,10.42-6.01,8.92-17.64,9.11-27.95.22-11.96,2.68-23.6,6.85-34.79l-11.57-3.19c-4.78,20.24-15.6,38.26-22.29,57.84-2.52,7.36,8.94,10.36,11.57,3.19,4.05-11.05,8.66-21.84,13.85-32.4,3.38-6.88-6.81-12.96-10.36-6.06-6.53,12.68-13.15,25.32-19.86,37.91-3.63,6.81,6.72,12.88,10.36,6.06h0Z"/>
    <path class="cls-5" d="M246.77,372.6c-33.94-5.62-72.4,17.08-75.45,53.41-1.63,19.47,10.98,34.67,29.1,40.24,10.48,3.22,21.69,3.08,32.53,2.9,11.22-.18,22.44-.39,33.65-.58,26.4-.45,52.79-.91,79.19-1.36,7.71-.13,7.74-12.13,0-12-39.48.68-78.98,1.8-118.46,2.01-15.47.08-37.02-1.75-42.85-19.19-4.9-14.65,3.48-30.66,14.2-40.36,11.92-10.79,28.99-16.14,44.9-13.5,7.55,1.25,10.8-10.31,3.19-11.57h0Z"/>
    <path class="cls-5" d="M272.76,404.73c9.7-1.92,19.45-3.71,29.36-2.44s18.98,4.84,27.49,9.52c7.68,4.22,15.9,8.8,17.96,17.98,1,4.44.92,9.17.79,13.7-.1,3.54-.1,10.33-4.56,11.24-7.56,1.54-4.36,13.11,3.19,11.57,13.14-2.67,13.75-19.07,13.35-29.65-.49-12.98-5.29-22.62-16.07-29.97-10.4-7.08-22.42-12.71-34.78-15.25-13.52-2.78-26.55-.91-39.92,1.74-7.57,1.5-4.36,13.07,3.19,11.57h0Z"/>
    <path class="cls-5" d="M263.88,399.35c3.41,48.31,6.3,96.22,3.25,144.65-.49,7.71,11.52,7.68,12,0,3.05-48.43.16-96.34-3.25-144.65-.54-7.66-12.54-7.72-12,0h0Z"/>
    <path class="cls-1" d="M109.52,351.95c-1.1-7.54-1.55-15.18-1.35-22.79.18-6.93-1.37-18.05,6.74-21.06,3.09-1.15,6.84-1.49,10.11-1.74,3-.23,6-.38,9.01-.44,2.74-.06,5.48-.04,8.22-.02,10.81.07,21.82-.49,32.59.16,9.98.6,19.47,4.2,29.41,5.07,14.05,1.24,27.19,8.56,39.58,14.69,5.24,2.59,10.35,5.51,14.84,9.25,1.93,1.61,3.73,3.36,5.52,5.1,2.8,2.72,5.6,5.44,8.39,8.16"/>
    <path class="cls-1" d="M108.9,351c-7.34-.06-18.24-1.86-25.09,1.38-5.12,2.42-4.13,9.09-4.42,13.83-.27,4.32-2.04,8.55-2.61,12.91-1.57,11.95-.25,24.13-2.52,36.01-.62,3.27-.22,6.33-.3,9.69-.09,3.62-1.07,7.28-1.47,10.96-1.89,17.57-1.33,35.27-1.2,52.9.03,4.14-.24,8.27-.24,12.41,0,3.85,1.24,7,1.44,10.75.42,7.96-.16,15.92-.08,23.89.05,4.32.71,8.59,1.15,12.89.28,2.71-.31,5.2,1.66,7.3s5.34,2.47,7.96,2.77c13.12,1.47,26.25.55,39.39,1.24,13.9.72,27.83,1.13,41.74.57,4.11-.16,7.67-.92,11.82-.66,5.02.32,10.04.54,15.07.67,8.49.21,16.99.16,25.49,0,5.67-.11,11.25-1.12,16.88-1.7s10.86.36,16.34.51c18.66.52,37.33,1.04,55.99,1.56,13.54.38,27.09.76,40.64.65,7.02-.06,14.04-.24,21.04-.62,3.5-.19,7-.43,10.5-.73,1.58-.14,3.64-.71,5.2-.49,1.08.15,1.64,1.08,2.87,1.11,16.31.37,32.63.74,48.94,1.11,5.24.12,10.53.31,15.75-.24,3.79-.4,9.07,1.09,11.56-2.69,2.37-3.59.43-8.41,1.18-12.64"/>
    <path class="cls-1" d="M433.62,348.1c5.68.97,11.37,1.94,17.05,2.92,8.04,1.4,12.92.99,12.87,10.9-.11,20.32-2.11,41.49.34,61.64.29,2.37.67,4.74.63,7.13-.6,39.57-1.57,79.18-1.57,118.68"/>
    <path class="cls-1" d="M273.15,347.63c2.13-3.27,5.9-5.4,8.81-7.91,6.12-5.26,13.24-10.76,20.59-14.19,7.36-3.45,15.87-5.7,23.54-8.79,11.6-4.69,24.4-5.66,36.8-6.46,19.67-1.27,38.66-1.92,58.31-.07,1.74.16,3.52.35,5.12,1.07,4.94,2.24,6.08,8.65,6.58,13.47.78,7.55.1,15.55.14,23.15,1.08.94,2.5,1.71,3.92,1.51"/>
    <path class="cls-1" d="M445.21,349.93c-3.72-.1-7.42-.76-10.94-1.95.46,1.8,1.69,2.46,3.55,2.45,7.69,0,16.07-1.18,22.49,3.05"/>
    <path class="cls-1" d="M110.32,350.89c2.24,14.91.94,30.09.29,45.15-.68,15.8-1.16,31.98.53,47.66,1.15,10.62.95,21.3.76,31.96-.06,3.4-3.02,12.7-.32,15.36,1.42,1.4,8.06.58,10.21.97,4.17.76,8.21,2.37,12.13,3.9,30.51,11.91,59.54,26.79,90.23,37.81,14.49,5.2,28.67,13.07,37.33,25.68"/>
    <path class="cls-1" d="M433.22,348.52c2.29,49.59,3.64,99.23,4.07,148.88"/>
    <path class="cls-1" d="M436.96,489.13c.05,2.41,1.87,9.96.18,11.27-1.5,1.17-9.73-.37-11.88-.32-8.34.17-16.66,1.28-24.74,3.33-5.4,1.37-10.53,3.55-15.86,4.94s-10.13,2.72-14.97,5.01c-10.04,4.75-17.32,8.37-28.04,10.4-12.4,2.34-25.27,8.97-36.23,14.99-8.91,4.9-18.14,11.6-20.12,21.55"/>
    <path class="cls-1" d="M272.3,347.89l.51,45.25"/>
    <path class="cls-1" d="M273.38,549.67v10.09"/>
    <path class="cls-3" d="M375.75,551.12c12.62,1.7,25.23,2.48,37.97,2.07,7.7-.25,7.74-12.25,0-12-11.61.37-23.26-.09-34.78-1.64-3.24-.44-6.4.78-7.38,4.19-.8,2.79.98,6.95,4.19,7.38h0Z"/>
  </g>
</svg>
